<mxfile host="app.diagrams.net" agent="Mozilla/5.0 (Windows NT 10.0; Win64; x64) AppleWebKit/537.36 (KHTML, like Gecko) Chrome/134.0.0.0 Safari/537.36 Edg/134.0.0.0" version="26.1.1" pages="3">
  <diagram name="Trang-1" id="mQSTmGKFa3K6hvDLOO5k">
    <mxGraphModel dx="1546" dy="1559" grid="1" gridSize="10" guides="1" tooltips="1" connect="1" arrows="1" fold="1" page="1" pageScale="1" pageWidth="827" pageHeight="1169" math="1" shadow="0">
      <root>
        <mxCell id="0" />
        <mxCell id="1" parent="0" />
        <mxCell id="hH6mXbKhECupBvVUBIA4-1" value="" style="shape=image;verticalLabelPosition=bottom;labelBackgroundColor=default;verticalAlign=top;aspect=fixed;imageAspect=0;image=data:image/png,iVBORw0KGgoAAAANSUhEUgAAAYoAAAF0CAYAAAA95n55AAAAAXNSR0IArs4c6QAAAARnQU1BAACxjwv8YQUAAAAJcEhZcwAADsMAAA7DAcdvqGQAAFzqSURBVHhe7Z0HfBRFG8ZfpNdQlSIk1ADSQUVUQrEAUsUGCgFEbEho8lkQgkiTGju9F0EpggiKQABpCiQoUqUJoZdAqCr77fPebjhCcqRcksvl+f9+m92Z3eubeeYtM5PBMBFCCCEkDu6y9oQQQkisUCgIIYS4hEJBCCHEJRQKQgghLqFQEEIIcQmFghBCiEsoFIQQQlxCoSCEEOISCgUhhBCXUCgIIYS4hEJBCCHEJRQKQgghLqFQEEIIcQmFghBCiEsoFIQQQlxCoSCEEOISCgUhhBCXUCgIIYS4hEJBCCHEJRQKQgghLqFQEEIIcQmFghBCiEsoFIQQQlxCoSCEEOISCgUhhBCXUCgIIYS4hEJBCCHEJRQKQgghLqFQEEIIcQmFghBCiEsoFIQQQlxCoSCEEOISCgUhhBCXUCgIIYS4hEJBCCHEJRQKQgghLqFQEEIIcQmFghBCiEsoFIQQQlxCoSCEEOKSDIaJdUyIV3P+/HkJCwuT1atXWzUkvuTNm1eqVasm9erVs2pIeoJCQbye4OBgmTJlshw6dNiqIUmhatUqMmZMCEUjHUGhIF4LrIcOHQIlPHy7+PoWlXoBD5iNXHmzZ+xvXUHiy/nzF83vcbdpjW2W0DW/al1QUJCKMKwN4t1QKIhXAvdS/fr19TioWzvp1+9Ns0HLrWWSNMLDd0nHju9J+Pbdal2EhYVbZ4i3QqEgXgdiEdWqVVVX08qfJ0uAaUkQ99Op0/syddpC6d+/v1oWxHth1hPxOtBoQST6m1YERSL5GDXqHXXpDRgwQN18xHuhRUG8jgwZMkjVKv6ydet8q4YkF6Ghm6VBw44SGBgoU6ZMsWqTzqlTp6RQoUJWKWn8+++/kjFjRr0vSOKgRUG8Cjv1tWXLx3RPkhdYbLAqwsK2WTVJ58iRI3LPPffIvHnzrJrEASunffv2MnToUBWyV155Ra5du2adJQmBQkG8CtsFEhBQS/ck+alWtbxmlrmLokWLyqRJk6Rhw4ZWTfw4dOiQdSQqCI0bN9bMrL59+8q0adPk2LFjMnz4cOsKkhAoFMSrQCAbVK1aQfck+alWzfFdu2sg41133SUdOnSQ/PnzWzV3Zt++fdK1a1erJPLnn3/K8ePHpXjx4laNSOXKlWX37t1WiSQECgXxSpgK65ls3bpVpk6dKkuXLtXyzp07tYzN2S20ceNG+fVXx3gNgMd9//33EhkZKRMmTJDPP/88+voDBw6o9QARwPPs2rVL/Pz8JGfOnGpR3LhxQy5fvixLliyRNm3a6GNIwqBQEEJSjOrVq8vs2bNl4MCBWq5QoYKcPXtWLYioqCi5dOmSfPjhh/LQQw/J+vXr9Zply5bJk08+KYMHD9aMtpMnT2qm1VtvvaXnc+fOrdOLYF+7dm0pXLiw5MuXT4PriHM89thjGp8YNmyYNGnSRB9DEgaFghCSYiDzqGTJklbJQbly5awjUSugX79+kiNHDqtGpFGjRvLggw9KtmzZZPTo0fLee+9Ju3btZPny5Xq+YMGCOjocj/H3948eKf7MM8/oc61Zs0Z++OEHyZQpk9aThEOhIIR4HFmyZLGOHGTOnFny5MljlURKlCghFy5csEqxM3fuXNmzZ4/s2LFDfH19pWnTprJixQrrLEkIFApCiNdx+PBheemll+Tjjz9WKwNurFq1akm3bt2sK0hCoFAQQlIc53G+CDa7A+fn/OOPPyRr1qyaaguyZ88u3bt3l717995yHYkfFApCSIpSoEABzXZCKjNEAvEDgKC2zT///CP//fefVXKMi3Bu4JHFhBHXNohPwIoAeJ4qVaroY5zTYRGjqFGjBkdoJwIKBSEkRXn55Zc1QwlBbcQNHn74YZ2uY+LEiZr++tlnn2n203fffSfh4eGycuVK2bx5s26IMUBkkM2ELKkvvvhCn7N58+YSEREhdevWld9//13uvfdeHbTXqVMnvfbTTz+V8ePHa50nAk2E7jlpo9uBzuI1sCXUqOJcT8SrQPokUif/+3eHVeM+SpV+3GzILlqlmyDQWq6sn7z//qvy5JOPWLXxw37OXj07yXvvdbFqb6dAwdq6/3BAN3nzzbZ6bBPXubVrf5NZs76XLVt2SOnSxaVt26bSrJlj6nV38uGHX8iADz+XVatWxXsxI1gMSHMtVqyYXL9+XediwpYUTp8+rQFv50D41atXNaCNbCoIEwbzeSJTTP3avEmkZi1TSF+xKt3MqVMi/fs6jvsNEClc2HEcH2hREBJP0KBjAZ+Y26lTZ+WX9VulRcs3ZceOvdbV8cN+TufBZrFhv9a1a9etmpvEdm7hwhXy+BMvy7jxc2XL1h0yd94yadmqq4SETLeuSF0grhAJgIY9qSIBkCYbM1sKKbVwQ5UuXdpjRSItwG+OkATS7a2X5PChlbod2L9CZkwfpvX//POv9uBTmytXrkqnl/vq+xkyuKccP7ZWp1wHgwZ/pfv0DqYbScqUI/DDrAkVGfGxSO8eplUVLDJ9qshFJ4Nzz26RAf0dmzNfz3bUfbfIUV6yGFOQOI737xeZaWn5j8sd102dLLLlN5Ehg0Te6SMyaYKIc2aw83XODBviqN8eLnL0qMjcr60TJt9+I7LzT6sQDygUhCSQPHlymb3he3QrUaKItGnTVEqVcswpFBFxUvfgwoUo6dp1oFS8r6m6h+rXD5Tly9dZZ5OP+fN/UkulSmV/6dPnZSlUKL/06/eGXL60Tf4+vMq6Kn2DkdzIgoKrLDGCgcZ8ziyzYf8LgwhFThwX2bBeZOCAm434ddPAQz02Z86dc9RdiHSUcXwpynF8+RJmz3UcR5mig3M7dohMnmjeW2Zjj8f89qtDBK5evfW6s+bzOnPKvBVRj+uumRseb6PP5XoYyi1QKAhJIufOXZDTpx3/pTVq3Kf769f/kToPt5Evv5ojZ89GamO9Zu1v8lTT12TOnOS1Otavd0z5/eCDVeSnn36RHj2GSHDwZ7J79wHJmvVW10x6BaO3McUHZhvGkrkJEYwDZq9//S+O4xfbiQwfZVoUZm8/fwFHo73YshTiC2ISVas5jitVFvnfu45jGzznY0+IhHwm0uttMX9D854767Bo4kup0iLde1oFk7eCzPvDEdqKFxQKQhLI5CkL5OGH2+pWu/bzUs6/kVoPjz9WRzp3bq3XfPXV17Jz536pUKGU/LXvR9m1c6kE9++qKZ49ew27JfXT3Rw/flr3i5eskkaNu8gnn86QgR99KQ88+JwsWPCTnksO0OjaLp20sCE997XXXtP3HhoaGm/B2LnTsb/XNCIftnIXCpgi0dBaAsU+7y5y5hRp2sxsrM3WunQZkfutRRt37XLsUwIKBSEJ5OjRE7JxU7huv/72h1oMPj65pWfPQMmePZtes2KFY0K7Bx+oqgHuzZu3S/Xq5bXuxIkzcvjwMT1ODmDNALzOmNHvyYb1s6V5s/oas+gWNDjZRKpHjx7a2KalDRMF2nNDAWfBsKesjwlcOiBm1pA1tk97++78igvdjTEgVsGkiPU6p0859ikB02OJV5Gc6bGIMyC76MW2TaVDh1ZaB7fTl1/OkVWrN0m2bFkl4mioisZ9lZqZPb79ek1sLP1+rKbS2s/Z9/3XzPftmA01NjJmcri0hn/8tilIHfTYJua51q27ycJFP8sD91eWDRvm6DlYN5Uqm91SE1g3Zcv66rE7sNNjsYocpvdOS2DNCixqdOXKFatG9HPgPorrs3w7T+TnFSIVzK/9LacZQbZuEZkwDplWIqNCRP74XeSLzxznvhjr2IMvPxf5fbtInYdFXmrvqIstPXb+N2aHwzQA777HvK8/dNSB75eY22IRv5Iifd65eV2ZcmJaq9ZFJj2DHPGJDp3EtCaTlh5LoSBeRUoIRcxGfePGMHn4kRf1+Jd1M6V27WrqkoK10fnlZ6RFiwZ6zpnq1StKkSKF4i0U+fI/qO6tfh+8If37OzKYwMWLlyRvPocvYuxXwdK587MaQEdspENgK5k48SM9h3/znLlqaArttq3zpUoVf613B4kZR+EJwGLA+8WgPnAngbDZuEFk2hRHLz94oIi9vhJEAeJQuqxIr94iu3eJhIx2nHvnfUxk6AhwB/czX/tc7EJRvYbIK6866mwBAIhb+JpvC4PlBps/6XHTIH3kUZG2Lzmyp5Ytxeh0kY9HOlxUCIgPdszkHqtQfBBsWiZFHMfxga4nQpKIj8/NWU0jIx3pKxUqlNY9aNIkQDesBBcWtls320VlA3fRpUtXbtvseZAqlC+le2Q0QTBspkxZaB2JVKzoeM0GDcxWwWTZ8rXRbqgff/xFRQLjFcqVS1u9/uQCWU8QCQgEFj9CcDs+FlGt+x3uIDTaI4ebv8m3Ip9YFgRo2tSxL2w2xPbQjc8/FRlvWhXvmxYARCImmTM79gcPOoQoJp994siyGj7MIRJ43gZWTMQajiKXL4sMMsUBFsvHQxx1ztivAVavFDmWAO8nhYKQJJI5800H8qVL5n+rSY8egTrAa+Kkb+Wttz6SESMmy5ONOssH/UJk5cqNt63A9/HwiZLHp9ZtG6wV8O67jlHbf+zYq6O5kWpbpUoL6d5jsNYH1L1fHnqouh43bVpf03YR1K5V6xlp27a3PPNskJ577dXn1UWW3lm40CGwCREIG1gSr5tGXQlfRzxixY8iu/50uJxgIfg7QlFmB8LsJJiigfTZixfEtORE/Ey9h8sqJpWrOK7D82GMgzMlzccUN18LWU5/H3Y0+IEdb7qOYIWUr+g4PhbhcGs92RgTITrqbPB+YJWAtWscFk98oeuJeBWp4Xq6evWaFClaV3v6T7d6XObNG6P1M2Z8J11NkYB7yOYp07KYNg0BVIdQ2M8ZF2vXTJc6dcyWwGTmzMXyzrujbhmrgQnu2rdrIUOH9pK77765xvTBg0elyVOvakqsTeunn5AJEwbqOBB3klZdT0kFLSd65RirgKUyit3rEIuYHDfPowEvWEjkXvOauOYkxHVH/kbqrkiZsjddT2X9RYK6ixwyrQ2MfUCqa+4YK/3ivRw0f2rE34uXwCh160QMYAXt2onBoY7ngXjEBwoF8SqSUygSA0QgLOxPDXpXrFhG/P1vXd0tocB9hMZ/795DUqCAj1SoUEbuuaeAdfZW8K+NIPbu3fvd8tpxkV6FIrlxFooeTmMgUgO6nghJRmA51Kv3oLQyLQ13NNQYMIdAdOvWT+jzxiUSANYG4hbuem2SfqFQEEKIBwL3U4OGyJCzKlIRCgUhhHggVaqKPPOcSD33zwyfYCgUhBBCXEKhIIQQ4hIKBSGEEJdQKAghhLiEQkEIIcQlFApCCCEuoVAQryQ0dLN1RJKb8+cda2qmtSnGSfyhUBCvAmshA8zQSlKG1as36wy6FArvhUJBvApbKMLDU3CdyHQM5rIK377b/N49YPgwSTYoFMSrQK+2atUqMnXaQrqfUoCePYfqvmXLlron3glnjyVeBxb5r169uvj6FpWtW+bftvYDcQ+LFv0sT7fupsIcFuZYJY54J7QoiNcB91P//v3l0KEIadAgkG6oZCAkZLp07PS+xiYWLlxk1RJvhRYF8Vqw1GVISIge9+/3pgQE1DI3x/rSJOFgMSSILkQidM2vpkj46OpwdDt5PxQK4tWsXr1aOnQINK2Lw1aNSNUq/pI37811rsmdCTMFIjLy5kp8LVq0UJHIi+XYiNdDoSBez/nz5zVuAdHA/vz5s9YZzyIq6pLkypXTKnkaGcTPr6S69bCKnZ1dRtIHFApCPAQ0wB06dNCNEE+CQkGIBwBrp379+uLr6ysHDx60agnxDJj1RIgHEBwcrPtDhw6p758QT4IWBSGpjG1N2NCqIJ4GLQpCUhnbmrChVUE8DVoUhKQisVkTEApaFcSToEVBSCoCawKisG3bNi0j48kxqpxWBfEcKBSEpBKwJjBgDWM7nMclQDxWrVolY8aMsWoISV0oFISkEpjpduHChbGObsaYCggJBgsSktpQKAhJJe600A8EhFNkEE+AQkEIIcQlFApCCCEuoVAQQghxCYWCEEKISygUhBBCXEKhIIQQ4hIKBSFexKlTp6yjpHP9+nXriKR3KBSEeAmzZs2SwoULy4kTJ6yaxDF37lydSmTEiBHSvHlzGT16tHWGpFc4KSAhHkKGDBl0nqeYs8nGl9OnT8v3338vgYGBVk38sCchBFu3bpUmTZrohITZsmVTq6JIkSKyaNEieeSRR/Qakv6gRUGIl1CwYMEEi8S8efNkwoQJVkkkNDRU8ufPryIBsmTJIuXKlZPdu3drmaRPKBSEpAGWLl0qU6dO1R4/wDxQKKOnb4PeP8rHjx/X8j///CPLly/XmWn3798vo0aNkvnz5+s5sGzZMunYsaOEh4frc2Feqfvuu0927twpX3zxhV6zb98+OXDggDRu3FjLJH1CoSAkDdCgQQMJCgpSCwBg0sAFCxZI3759tXz48GF56aWXpGXLltExik8++UQaNWokQ4YMUavh2LFj8uyzz2osA1SsWFEKFCggxYoVk9q1a0uOHDnkiSeekG7dusmbb74pnTt3lnfffVetjKJFi+pjSPqEQkFIGgCuIMQKnClbtqx1JFKiRAnp3bu3VXLQq1cvyZkzp1SqVEkGDx4sw4cP1+nMYWUAPAauJbis/P399RiEhIRIw4YNZdKkSbJr167oepJ+oVAQ4iVkzZrVOrpJ5syZxcfHxyo5xOHChQtWKXZ69OghLVq0UHcXrJC6devK0aNHrbMkPUKhIIREM2fOHBWIt956S91WmzZtkitXrsigQYOsK0h6hEJBSBrCOZv9xo0b1lHScH5OBMuR5WRTunRpee6552TPnj1WDUmPUCgISSMg8IwePgQC7qO1a9fK2bNnrbOOLCfw33//6R4gE8pZCC5fviz//vuvVRINYCMQDvBctWrV0iwo+7lApkyZpGbNmlaJpEcoFISkEfr06SMbN27UwXE9e/ZU11Du3Lk1tRXpr+PHj9frJk6cqDEFBKUhDMiOQsorgtibN29WsUF6LXj66ac1CwoZUxcvXlTroXXr1vLCCy/IkiVL5P3335eIiAj54IMP9HqSPuHIbEI8hPiMzI6KipKrV69qphJiB9mzZ7fOJB4ErDH1B17f5ty5czp+AplWMbOtSPqDFgUhaYhcuXKpSAB3iASAEDiLBMiXL5/UqFGDIkEUCgUhhBCXUCgIIYS4hEJBCCHEJRQKQgghLqFQEEIIcQmFghBCiEsoFIQQQlxCoSCEEOISCgUhhBCXUCgIIYS4hEJBCCHEJRQKQgghLqFQEEIIcQmFghBCiEsoFIR4EOfPn7eOCPEcuHARISnMwoULdTt48KC5HZBDhxxLkcYkIKCu+TeDtGzZUjc/Pz/HCUJSGAoFISnAlClTdPlRCERkZKTW+fjklmpVy+txtWrlJW/ePHocFrbTtCwumtsFCd++W+uAr28JUzBaSffu3SkaJEWhUBCSjEAcOnToYFoNh7RctYq/2dg/Ji1aNJCqlkjciUWLfja3lbLQ3EdGXtS6wMBAXTKVgkFSAgoFIckABCI4uL+Ehq7RcmD7ltKv3xtmw15My4kFohESMl1C1/yqZayxDQsjb968WiYkOaBQEOJmxowZIz169NBjdwlETKZOXSADPvzCtFQi1CW1cOEiqVatmnWWEPdCoSDEjcDNNHXqVI0/LJj/iQQEPGCdSR5gXfTsNdR8PR+NgyDoTYi7oVAQ4gaQ1lqvXoCEh2/XOMTKlVMlb97c1tnkBe6ojp3e1/jF6NGj1RVFiDvhOApCkoizSMDVtHXr/BQTCdCiRUNZtXKK+PoWVZcXLAtC3AktCkKSiO1ugkhMmjTIqk15kFJbqvTjalmsWrXKFK961hlCkgaFgpAkYAeu4W6CJZHahIfvkvoNOphHd2nmFQPcxB1QKAhJJGiI69evry6frVtS1t3kCmREdXq5r1StWkXCwsKtWkISD2MUhCSS7t2DdL9g/qceIxIgMLCVBHVrpzETxiuIO6BFQUgiQAPcsWPHVI9LxIUdr0BfEHNKcUAeSQq0KAhJBBh1jbESGEznicDC6R7UXueVQhyFkKRAoSAkgcCawIyvaIjdPeLanUDEED8ZM2a0pvASklgoFIQkkClTJuu+W7d2uvdkgrrBqrigs9YSklgoFIQkAPTMMdFfi+YNPCqAHReYpRYgQ4uQxEKhICQB2D3z5J7DyV3ANYYxHgsXLrBqCEk4FApCEoAtFHZPPS2A9S/ofiJJgUJBSAIIC9umPXRPDmLHJCCglu7DwsJ0T0hCoVAQkgCQ7WQvWepO9uw5KA0bdpRevYZZNe7DdpMx84kkFgoFIQkE61u7m6ioS7I6dLPZ699l1bgfWhQksVAoCIknduZQclgUyQ3GU4hwEgaSOCgUhCQQX98i1lHS2LfvsAQEtNOtc+cPtG5b2M7oOne6ofx8i9GiIImGQkFIAjl/Pso6ShqXL1+Rdb9s1S18+26tw1oSdt0ff+zVOnfB+Z5IYqFQEJJA0Ji7g3Ll/GTb1vm6zZjusB5q1awUXffFF/21zh2Ehe8SP7+SVomQhEGhICSe2CvGnT9/QfdJJVu2rFKlir9u/v6ORjxXrhzRdaVLF9c6d+AucSPpEwoFIQkkOTOTkgNMOQ64NCpJLBQKQhKAr28Jt1kUzlSsWEb+3LFEpkwZYtW4j/DwndYRIYmDQkFIAqhXr74Gng8ePGrVuAe4oeB+Kl68sFXjPhYtWql7WhQksVAoCEkAdmNrN75pgYWLfhYfHx8KBUk0FApCEkDLli11v8hsfNMCsHwOHYqIft+EJAYKBSEJAGMRWrRoIaFrfo0OEnsy06Yt0j2FgiQFCgUhCcRudD/88HPdeyoQsjEh08THJw/dTiRJUCgISSAdOnQQX19fCflkutuD2u7kE/P9YfxE9+49OCqbJIkMhol1TAiJJ5ggsH79+hLYvqVMmjTIqvUcYE2UKv24KRD5TDE7ZNUSkjhoURCSCPz8/KRmzRoyddpCCQ3dbNV6Dp06vafWRHDwAKuGkMRDi4KQWIDFgNlWsdgPNnvm1dDQUN2DAQMGSP/+/cXHJ7ds3fKtx6x6N3XqAun0cl+pWrWK+b7DrVpCEg+FgpBYgFBMmTJF15mOjIy0am8SEBAQfU3Hjh11edSVK6dK3ry5rStSB1g3DRp21HETBw8eZGyCuAUKBSEugDUxdOhQ+fzzzyUq6ub04tu2bZNq1arpMYLbU6dOlRbNG8j8+Z9qXWoQHr5L6jfoYB5lMEUsNPr9EZJUGKMgJA4gEt27d5dhw4bdIhJBQUG3NMKwKgIC6sqi71bK00+/pYHklMYWCcQlxowJoUgQt0KhICQW4HJCwBqWAtxM48eP13q4dIKDg/XYmYULF+lAPIhFgwaB2nCnFIhJ1KjZWkVi8uTJauEQ4k4oFIQ4Ab8+Bqe1atVKy6NHj9ZYRJkyZbQ8ZsyYWP3+qIO4wNrApIHo3Sf3NB+wXDp1el8D1xAwuMMoEiQ5oFAQYgERgMsGmU2wDpDpBNcTgIDAsrhTQ4znQK8ecYKnW3czrYsOyZI+GxIyXcdJID3Xkd0URncTSTYoFCTdYzeyPXr00PKCBQuiXU82EAqIQHyAmCAtNTAwUOeEQhYSYhdJdUfBgoCbCQLRs9dQsyaDpufitZzfKyHuhllPJF2DeAPGQwA07HG5lhDYTkyqKdxWwcH9TatijZZ9fYtKvYAHTIulgbk11DpXYIoQWCSY1hzxD4C5mzAtB6wdpr+SlIBCQdIlaMDR8z906JDO24TMpeScOA9Wi2NcxgLzNQ9btWj0c0u1quX1uFq18ioMsBywih5iHc4gs6ply1Y6KSEtCJKSUChIugKWAayIkJAQLcN1k9I9c4gGXFsQK3Dw4IFbxANAFOBagiBAwCAOtB5IakGh8AKuX78uV65c0cwXd/DPP/9I5syZrdLt3Om8p4LGGVYERlpXrVpVe/ieFADGe8PGKcGJp8FgthfQtWtXqVOnjlVKHP/995/07dtX7rnnHsmePbs0bNhQjh8/bp11sGXLFnnggQf0fNGiReXLL7+0zng2CESjR+6c8uppWUJ4jxizEdsYDUJSHVgUJG2zfft2Y9myZVYpfly7ds2IiIiwSoYxdOhQ49tvv9X69evXG7lz5zY6d+5snTUMsyEzzIbW2LBhg7FmzRqjcePGsESNxYsXW1d4JqYoGKalpe81ICDAOHDggHXGswgMDNT3iG3VqlVWLSGeAYUinfLmm28aK1assEqGsXLlSuvIQfv27Y3nnnvOKhnGiBEjjMjISKtkGJcvXzbuvvtuo1OnTlaNZwFBgDCg4YVQTJ482TrjeeC92iKBDe+bEE+CricPxuzdy8yZM9UlYfb+Iery9ddfa3nTpk3WVSLnzp2T6dOnWyVRH/yMGTPk7NmzYloAOqndr7/+ap0VGThwoE5yt3z5cpkzZ47WYREeZ06dOiVvvPGGVRJp166d5MmTxyqJup/8/f0lS5YsVo3nAPdNyZIlowfOwa0D37+nEtPdhPdtB7oJ8QgcekE8FbiB8DPZriW4hgoVKmR07dpVyxs3bjQqV65s5M2bV8tnzpyJdmMEBQUZgwcPVpeR2aBHu13MRkjPT5o0ydi7d6/W2Vy/ft149913DbNh1eO4uHHjhlG0aFHDFBurJvWBy6Zq1ar62Xx9fdOECyemNZE1a1bd06ogngSFwsM5fvy4NhzOMYhatWpFCwUYNmxYtFAA03rQx5g9Uy2fP3/euOuuu1QYwJEjR/S8s+sJmJaJikSFChX0PAQmLhCbaNq0qVVKXfC+IYp4z9hwjLq0gC3qiKVg/7///S/aZcZYBfEU6HryAsxeqHXkwE5dtdNlsYfb6MKFC1qOC+TpmxaIhIeHS5cuXXQqix07dlhnb3L69GkZNWqUTJs2zapJPZDyiuwljItAyqvZuMY5utrTgEsMLiZM5mfPKZUtWzatw/gOZkART4FCQW4DQjNo0CAxrRAxrQ+r1sGNGzd0yguMQciXL59Vm/Jg4Jyd8orR1Y45j8LS1BgECEVcaboQCWz4nISkNhSKNIJp/VlHjsbaHTg/Z0wKFiwo+fPnlypVqlg1Dj766CPt/ZYoUcKqETl58qR1lDJApDBiedGiRTqj64EDB9Jk7xui5sryudN5QlIKCoWHg4YiY8aMsn79ei3v3r1b9u3bpxlNNhgpjQFzNsiWArYQQFiuXr0q//77r5Zz5Mih+8OHD+vj4JL6/fffo88DZEs999xzUqRIEatG5N1331UBgZWBzBy4eWB5/PXXX9YVyQt64Gg8sUY1sNeK4LxHhCQzCFQQzwYBZvxUFStWNIYPH66D3R599FEd/Iaspzp16uj5r776SgPXdoD0tddeM06fPq2D6VB+6KGHorOczAZXxxf06dPHMEXE8Pf3N4oVK6bX4nnGjx+vGVY29nPE3CpVqmRdkbz0798/euBcixYt0kywOiHgs+FzEuJpcK6nNALGNcASyJkzp87rhHEMSQHWA6ySu+++W8uwSmCtIOhdvHhxyZAhg9anNvDhYwwEAuwIysPthNiEN4LvnEFs4onQ9ZRGKFSokIoESKpIgEyZMkWLBEAA27QONPbgCSJhz/JavXp1FQksMQrXk7eKBCGeDIWCeByIOyATCNlVWCsiLaW8EuKNUCiIxwArAm4mTCdip7zaAWxCSOpBoSAegb1GNeaxQsorBqHRV59wEMtyF1jnxBWIa5H0AYUinQB3TszNEwZz2RaD81oReG+etFZEWmHWrFlSuHBhOXHihFWTODBRZLly5XSUePny5eWXX36xzjhIq+uSkMTDrKc0DBpUNLTYcAwwnGL79jC5cCFSywmlcuWqki9fXkE8G401evnYY3N3jABxB1gNmO0WVoQ9kC69ktSsJ0yt8v3330tgYKBVEz/sdcMB4kHr1q2Tbt26yZkzZ+SFF17Q2Yn37t2r53Ftjx49pE+fPmpRDBkyRH744QdZvHixNG3aVK8h3geFIg2AFFFbFHC8bVvsQlCuXFXJlevWxtzfv5rkzu26gf/tt9untN66NdQ6upW6dQOkZEm/aAFJTBYSPgNGd2PQnrenvCaE1EiPnTdvntmx2K5TzwMIhfOU85MnT5Z33nkn2koZOXKkvPLKK9FTziNVG/cCRGLixIlaR7wPCoUHYlsI2BYsWHibKNSoEWCa/H66+ZerrnuIhLuJiDgkx44dlN+2rJKLF8/L7t1hsmdPmERF3fp+YA2goYcL6U4uIzSCyGYC6Pkym+kmroRi6dKlGn+oXLmy+fvX0HsDvXt8d1hzAyCmgN79gw8+qC4o9PhXrlypadAQZDsO9PTTT+v1y5Ytk2eeeUYaNGggrVu31ueJ+VvgvSAt++2339YypmtxTqsGdevWlfvuu48uKC+GQuEh4J/YFobDhw9ZtQ4roWbNelKrZn3d587tmBE2tdmyJVQFBNaIs/WRJ4+PtGrlEA2Ih93w4LMho8l2c8CKYDbTrbgSCkzBgsb/9ddfV3cPwPeL6VMw/QqmY+ndu7daCLDYMJMuev+oe/bZZ6VMmTIqHJj1F4tctW3bVh/z6KOPSpMmTdTCw2JPzgtRffPNN3o95tTCOJ7YQPNx7733quXxxBNPWLXE26BQpCKwHNBgTp48JVoccuXyMRvQltHCULSow3fsyVy8GGkKx2oVDuz37Am3zjisBjRaPXv21DIaQjRKtCJu506upwoVKqg42EKBXj6sAggF2Lx5s1oTtlCAXLlyaTyhX79+Wq5Zs6YOrER2GShbtqzGIWzXk80nn3yinRe4oiDseI3cuXNbZ2+yZMkSGTt2rMYoiPfCrKdUAL1r/MOjBwc3zNmz56VLl/4ye1aYhK4+LwOCp0izZoFpQiQArJx69VpI715j9DMs/u6gBPefotYQGiSIRL58+fWzUiSSj5jrkgCMuIfbyQYj7++0LglAMBtuK/x+sAJjW3vEk9YlIckLhSIFgT/e19dPg4Uw5xFrQIMKcXi1S3CyxBlSAwgchA6iMW7samnaNFDOnTurvWV8fogFrCni+bRv317jIp66LglJGSgUKQAsCDSQSCuE9YCGE73u8eNWa4PqzdSsGaAW0upVDqspZ8681mp01VQ4ScJw9hSnxLokwN/f3yPXJSEpB4UiGUGvGS4mWBCIQaChXLL4kDacacWt5C7gnoLVtGSxwy2FNg7CCcGAkJI7U6BAAdm0aZMKBNxHa9euvW1dEuC8NgkyoZyF4PLly7esO4IZiRHUBniu/fv33+KawhgXlO1MKZDa65KQlIdCkUwgIIlG0HYxwYJAQ+kpWUupCawoCGabNkGyfXu4Cikyorjsp2sQlN64caMGlxH3adSokQaYEUdAAz9+/Hi9DuMZjh49qpYbhAFrn+/cuVOWL1+uAW+IjS3OEACM6H7ppZfk4sWLMmzYMF2sCs+PIDUypBCDsOMfOD906FB58803NWsNG9JrMZr7oYce0muI98GsJzeDxi4goJ42gMhgGhA8VQO9JHaQITV8RJCm2CK1NjQ0/U7fEZ8Bd1FRUZoqix69O9YlAceOHdPUW7w+mgMsLYtVEpFSi2A4IbQo3AjSEuvWdYgE4hDoNVMkXIMAPmI1PXuO0YGFEFmkZZLYQborRAK4QyQALAiIBMC+VKlSmopLkSA2FAo3AZFAI/f77+Eai0Acgm6m+PNi2yDNkELsAhMEIpuGEOIZUCjcgC0S6BEjUItYBEk4yJAaPy5UXXYdO3akWBDiIVAokggym5xFwtvTXZMbhyvqpljQDUVI6kOhSCKBgR0oEm4GYjF7liMZAN8vs6EISV0oFEkArpE1a0JNi6IFRcLNYJxJly4DVISDgrpbtYSQ1IBCkUjQy0UDhl5v714hVi1xJwhwYwzKtGlTOSiPkFSEQpFIkOuO3i56ve4cZf36G49Lvfr5ZOKkQVZN7Az48GW9btDgV60a7+Tt3g4RhguKEJI6UCgSCUa9Finiq71ed3LlSpQuEnTt2lWrJnauXr2s12HvzSBegRHcmAKFgW1CUgcKRSKwG6w2bXroPjV4950v5IelR80e96dWjffSvFlH3dP9REjqQKFIBBg3Ae6vlXwrtP33378yYmR3afJUCWn1tL98+tm7t0z2NmHiR/L6Gw1l8pTBVo3Ijh2/Sregp+TJRkXl0bp55NnnKsmkyUNumWX0r792yNt9WkvjJveq6+rFl2rK13O/MK+5OZMLJnWZNn2ktGt/v9QN8JHnX6gis+d8qvU2kZFndeqNlq3Kmq+VW1o/U0FCPukjFy64P0MJVgWsN6wVTghJeSgUicAWCjRgycXXX38qs2eHyJkzx+Xw4T0yZcpQ+d87z1pnRU6dipCDB3fJ6dPHtHz06AF57fWG8ssvS+XcuVOSKVNm2b9/h3z++XummAzVa86cOSFdXq0nK1fO13Wvs2bNLrt2bZWPP35Txo7rr9eADwe+LCEhvc3H/ymFC5fQ/YgR3WTI0NetK0R69Gwuc+Z8IhERB8XHp4C+l2nThkuv3skzZUmRIn6aYUYISXkoFIkgJfL6r127IqNGLpIN669Knz6fad2qVQvUaoiNFT9/K5cvX5R77y0toasjZdXKM9KyZWc9t2HDMt2vX7/MfO+nNVPrpx9PyvJlEdKjxyg9t3DhBN1jkr7FiydL5sxZZOaMrTL3699l7FcrdQ6g+fPHqkUSEXFIwsN/0esnjF+jU4fPmL5Fr9m6dY0pbHv1nDvJnZur4hGSWlAoPJSHHmokAQHN5a677pLnn3tTSpWqqPXrTIshNp579g1Z+fMZmT7tV9O62C8//DBLfv11pZ67dOmi7gsWLKJ7WBNvdWus7qSAus1ly2+GigbYuGmFziDq51der/vjj82SJUs2KVSomNZDqPLkyWfWOaad7h/cwbRGguXGjf9k86b/9LlKlCir59wJAveEkNSBQpEI/Pz8rKPko2TJCtaRg9KlK+keIhAbEJQvv/pAnmrqK8+/UFn6fvBitFvK5oEHGkqdOo31GNN6w53UslUZadO2mlleq/VHjuzT/d692yWww4PR28mTjqUwDx7aZVokeaRDh3fU6oBbbNy4AdI+8AF5slER0zKZeEssw51gGnJCSMpDoUgEtlBs2ZJ8PvMLF26uXAYiI8/oPn/+u3UfEwS35837QrJlyyH9PpioU5x36vSeddZBxowZ5dNPlsrCBfukW7fhUrXqwyowcDe91a2RpuTmzJlbr61U6UEJGfP9bdtTTdrpeUx8uHzZMenfb5LUNa0SxDvOnj0hAz/qLNu2OUTHnezZE5Zu16kgJLWhUCQCLG8KVq1eoPvkYM2axdEZREeO7FffP/AvV133MQkLW6d7rH/RokUnKVKkhGzYsFzrbOZ985UM+/gth7XQvrdMmrhOJk5wxBowHgNB65J+DhfXhQvn1Pp45JEm5r6RHDi4S3bv2aaZV5s3/6zPs2DheGnevKOMHrVIlv0QYYrYPfrYHX/GHkdJLKtXL1I3WP36icsyQ0wJ061gjeeAegEaS/HEDQwYMCDWc6m9+eT10dXsMNCU41nSH1zhLpH4+OTVtRPQc3fnuhMdOj4kv/++UY8RmK5Zs56sW/e9Zj+h/O03uyRTpkzy7ntt5Mcf50iTJi/JwA+nyzvvPi8//TTXtAjyqFAgKwplALcVgtLjxn8oY8f212uefLKNZjRt3PijuqEQLP5x+XGNQyDlFa4mCMRDDzWW9euXquggu2nhgr2yb98f8kqXuvrcjz32rPj7V5cDB3bK0qXTtW7ypA1SpUptPXYHPXu1lNDQRaalsi3BVgUatcAOgXIh0rEOdC6fXOJfrZwek/gTdT5KdofvsUoidQPqytQpU1PEDUtSHwpFIkHPCr0/jBru3WuMVZt0bKFo0KC1ZhZBIEDRon4yZvQSs9G/T8sxhQLuoze7PiFnz57U88WLlzF74E/LtGkfayxhzuztUqxYKenXv52sWDHvlrEVsAQ+HDDNFIUntPznn1vM53/etGRuLpaPYPrgQXOkbNnKWkbK7YQJA28ZGY6gNxZt6tjhHasm6cCa6NW7pdStG6DLpMYXWBFYhxtrlkMcXg9+RRq0rCfF/IpaV5DE8OvqLTJjzGxZtShU8vjkkZAxIfo9E++GQpEEqlSppivazZ4VlixjKpCtBNFAA4yYQZYsWawzsRMVdUHjA0h/ve++B+K8/vjxv9XNFBV1XgoWLGpee79kzZrNOuvg+vXrpuWwXcdJYLBbxYr3SwaHdySaixcjZffubRqbyJMnv/kdVDNFp5B1Nung+du0rSrHjh3SdZwT0nuFmwnTrNQMqCEfTelPgXAzKxeulr4dBkhUZFSiLD2StqBQJAFMKVG/fn0VCYgFcS9Iu0VGVb9+/U3rLf6rBtq/i3/VcjIvbKZVS9wNrIuX678mVapWkfCwcKuWeCMZg+FDIYkCPdxz587L0qWLtFyrZvJN6ZHeQEZZ8ICOUqKEryxalLDgKQLWkZGR8uWyT6Rg4QJWLXE3sNIunL8oKxb9LHnz5pXatd0XlyKeBbOekgh6upUrV9WeLwafkaSzePFUnWoE4yamTk3YutlYmvbwocPyYtALUp5B62Tn9eAuumcmlHdDoUgi6EmtWbNaxWLJkqkUiyQCkQge0EFFAsFrpGQmBHseLmY2pQx58ubWONC2sG1WDfFGKBRuIKZYIJ0TgViSMGbOCrlFJBITILWFonw1f92T5AeWG9KPYc0R74RC4SZssWjevIXm/Hd5NUBTVsmdgahCXEeN6q4xicSKhDN0O6UcsCoAhcJ7oVC4EYgFAq9BQUEqEphDCWtK0LqIG1gRTZtBHBbpWInwcE7VQYinQaFIBsaMGSOrVq2SKlWq6poSaAjheyc3sYUUVsRd5l04evRotSQgtoQQz4JCkUwgCIveMRpANITwvb/SpV6yTiSYFsBaFrCyIBIQi8DAQDl06KAOkCOEeCYUimQGDSAEo0WLFjqnEtI+0UjCwkhPLilMxYE4RLPmfmplwdqC1YXJ+mhFEOLZUChSAAzMQ545Gkb0oNGThoUBlxR61+hleyMQQkcMwk/na7LjEJMnT1bxTGjqKyEkdaBQpCBoGNGDPnfunLqk8ufPq71r9LLhlkKjmtZFA+IA6wHjSerVz6sxiEuXzmuAH/M1IQ7BSeQISVtwrqdUBpYGxAOznNpgEj5ML16/Xivdu3Ma8+QAcReszbFly+pbUoLhXurRo7uu35FS7iV7Vt/thnvXxCBx82XwOPlywHi1mGkleicUCg8B02JDNDCh3apVq+Xw4ZuWBSYdrFevpS5ahOnGk2Om2vgCi+fYsYPy25ZVsnt3mLqTbDBQDosLobGAOKTGWgUUipSHQuH9UCg8FIwwhmjYwnHhwq2Bb1gdRYr4Sa1a9aRokZKWgFRzm/UBK+HixfO6qh0EAeLgbC3YwGpo1aqlNhCe0EhQKFIeCoX3Q6FII0AwMPIVG0TkwIGDsn2765HfWJcC4nEnIAJY88EVJUr4SsmSftoQwI2EQXHYPC1jiUKR8lAovB8KRRoHogG3FYQE4Nie7wjg18VU6FhgKSbFi/uqewjjPGxQtl1GthCkpX/+1BSK5XN/kjmffyN7/9gnPvnySJ0na8ubH74meQvctPKwhsPEIVN0WdEsWbNIuSpl5fUBXaRijfLWFeZneOUj2bYuXJ56sZHkyZ9Hvhm7QI4fOSFVa1eWdz7pLdlyZJPODV7Xa/uPf19qPOLoDIRv/F36dfxQj8f++JkULu5Ywzy5oVB4PxQK4lWkllBMGzVTRlhL4uYxReLCOcca3ffVqijT1k+UzJkzyXfTvpcPOgzQdclz5Moh//77r1y/el0yZsoony0ZLQ8/+ZA+5o3GQbJu2XopVKSgnDp2WjJkyKCPAZgVd962mdLm/kDZ8duf0r7Xi9J7hGOw4qd9v5Dxgyan+IJNFArvh+mxhCSRSFMU0FCCHsPeknVnf5ZFO+dJzjw5tTH/5Yf1cinqsozsHaINfvPAprLu3EpZe+ZneaRxHfnv3/9kWNDIW9YxB9dMEfliaYisj1wt7Xu21brdYXvk9PEz0riNY33zNUvW6R6sX75J941eeFz3hLgLCgUhSWTn1l1y6cIlyZwls7R563mtK1neT4LHvy/dh3aVvAXzyq5tu+XcqXNy1113ydujekgm04rIniObCgs4uPuQHP/7hB7bNGhZT4UkZ+4c0vqVVlatyJkTZ+TJ5x/X58Lj/v7riJw7fV7fB2j0vENECHEXFApCksjRAxG6v7toIcmWPasegyefe1w6/S9QqtWpoo05wNKsPvnz6DEoVbGUupbA4X1/694mW86bz5XDFAtn7il2t9SoW12P13y/Tjb+tEktkiq1K0uxkkW1nhB3QaEgJInk9sml+6iLl3Rvc+XyVbkYGaUupHymVQGwxrRzWBCxDLvskz9hqc1N2j6pe7ifflm+UY/pdiLJAYWCkCRSqkJJ3UeeiZSw9dv1+Nq169Lcv7U8nLe+fD/zBylTqbRaDldN8fhx3gq9Biyc/J3ukQHl5++rx/Hl8dYNJVPmTPJb6FZZ98N6dUU98exj1llC3AeFgpAkAhGwM5a6t3pbRvX5RF5p+IacOHJSM6ACmj0qxfyKSrP2T+k17wcGy+CuH0u/lz+UkHc+17qOfdppzCIhwIX1SKM68s/1f+TsybPqioL7ixB3Q6EgxA0ET+wrterV1AZ7yvDpEvZLuDbaI+YNkQJ359dr/hfSS556sbGmxM75fJ4snLRY69v1aCOd3++kxwnFdj+Bxi8wiE2SB46jIF5Fag64w7/S/p0H5MDOg5rpdN/9FWO1Eo4dPi57tu9VtxHGPCDAnZbhOArvhxYFIW4CMYjSFUvJY60bSK2AGnG6koqUKCwBTR9Vd1VaFwmSPqBQEEIIcQmFghBCiEsoFIQQQlxCoSCEEOISCgUhhBCXUCgIIYS4hEJBCCHEJRQKQgghLqFQEK/k6EHH1N+EkKRDoSBeBdb4BlgJjqQMu6zvmtN3eC8UCuJVVKtWTfcUipTj19VbpErVKlaJeCMUCuJV2L3aRVOW6CJBJHmBSERFRkn1ao7V9oh3QqEgXkf//v0l4tAxndWUJB8Q4g86DNDj7t276554JxQK4nVgqnG4QmaGzJGFUxxrPhD3YosEBBnCbLv8iHfC9SiIVxIWFiYB9QLkQuQFqd8iQAZO6S958ua2zpKkAHeTLRJ1A+pK6OpQ6wzxVigUxGs5ePCgBHYIlDWhaySXTy7xr1ZOHqhXU/e5KRoJYlfYbtkdtleTBHaHOxIFYEnAeiPeD4WCeD1jxoyRBQsXqGCQpJHHJ4/Ur1dfBYLupvQDhYKkK+CSOn/+vFWKH/v27ZNly5bpHqKTVlm3bp1+jkceeUS3XLlyWWfih5+fn27u4tSpU1KoUCGrlDSuX78uWbJksUrE3VAoCIkFCMqUKVNk4cKFcujQIa0LCgpK00IBMCAxMjJSj1u0aCEtW7bUzR6omFLMmjVL2rVrJxEREXLPPfdYtQln7ty5snTpUilXrpxs3LhR6tevLz169LDOErcBoSCEGMa2bdsMUwwMX19fdJ5u23A+rRMYGBjrZzNFw5g8ebJx7tw568rkxbQmDFOIrVL8OXjwoHVkGFu2bDFMkTGuXLmi5WvXrhn58+c31q5dq2XiPpgeS4gJ3FGwHgDcK6ZY6LENyt7gk4f1EJOAgADdI/hvfwfJTcGCBcUULasUP+bNmycTJkywSiKhoaFiCoNky5ZNy3A9wbLYvXu3lokbsQSDEOJEzJ43LA1vwcfHRz9T1qxZdQ9Lwl1cvXrVmDFjhloLR48eNW7cuGHMmTNHyxs3brSucvT+TVEyjh07puXr168by5YtM7Zu3Wr89ddfxsiRI41vv/1Wz4EffvjByJkzp9GsWTN9Llg+y5cv1/f/+eef6zV79+5VCwOvS9wLhYKQGNgiUbVqVaNSpUp67A1uJxv787366qvRouFOsVi/fr0+Jxp+AFEoVKiQ0bVrVy0fOnTIePbZZ/WasLAwrRsxYoSWUf/uu+8avXv3Nu666y5j5syZeh6PKVGihPHaa68Zu3bt0ucE3bp108e9/PLLxjPPPKPniPuhUBDihLNIoNcaEBCgMQtvYsGCBfoZV61apQLobrE4fvy4Pp8tFKBWrVrRQgE2bdqk19hCAWAxDBgwwCoZRo0aNYz27dtbJcMoU6aM0bdvX6t0k4YNGxoZMmRQUd+/f79VS9wJYxSEWHTo0EGmTp0qpkjI6tWrNRMIkwzG5tdPy+DzmOKgnw9xF3xWlDt27KiZXilB1qxZraObZM6cWd+HjWlByIULF6xS7CDDCdlbyHw6duyY1K1bV44ePWqdJe6CQkFSFeTSuwvk0ieW2EQCYI9z3gbEwg7Op5ZYJJU5c+aoQLz11lvSqFEjMa0UuXLligwaNMi6grgLCgVJNZBLX7hwYTlx4oRVkziQS4/GfMSIEdK8eXMZPXq0dSZ+xCUSwLlB9SZizvaaHGJhOA3RunHjhnWUNJyfc+vWrZrlZFO6dGl57rnnZM8erkXibigUJNV44oknZNKkSQkecGUPgANoLLp16yZfffWVvPfee/LNN9/IRx99pKOQ44MrkQDuHInsScQmfu4SC3yHGTNmlPXr12sZ6aoY1X727Fktg3/++Uf3//33n+4BLEJnIbh8+bL8+++/VkkkR44ccvjwYT3Gc9WqVUvCw8OjnwtkypRJatasaZWI20CggpC0gmk93BLQHDVqlFGhQgWr5KB27drGhAkTrFLcxAxcEwfuCHAjcwmPr1ixojF8+HCjcePGxqOPPmps2LBB01+7dOmi59944w3jyJEjxpgxY7Rct25d488//9RAuCk4mi2FoDsIDg42TAEyXnzxxeiBd6ZlZDz99NPG4sWLDbOjYLRu3dq4ePGiniPug0JB3E5ayKWnSLjGHWJx8uRJIyoqSo9N60D3SSUiIkLvJ2dM60JHaeMcSR4oFCRZ8ORceopE/EiO1FmSNqFQkGTBU3PpKRIJg2JBAIPZJNVI6Vz6OwWuye2k1dRZ4l4oFCRNE99ceopE4qFYEAoFSVZMq9U6Sr1ceopE0qFYpG8oFCRZ8JRceoqE+0iMWGDqcjwGCz5h+VRsGOyHqVHsLSCgnjz6aD3JkCHDbVuVKtX0vPP1GARpPxc2PD8WmiLJB1e4I8kGBsANGTJEKlasqA3LypUrJSoqSj7++GO5++67ZdiwYTJu3Dh54403ogfLoRFBjAED6CAIL7zwgsYtMPoajcSAAQNk4MCBWg/3EtaJQIwC1+I1NmzYoKKERqxr164UiWQAjTJ+C6yUt2DBAhUQCALqsa4Hvutz587L9u3h1iNcU6OGYz0MVxw7dtDcbg60jIs8eXykevVq0cu24r3Ze5J4KBQkWcFcTrACcubMqbGD7NmzW2cSDwLWmPoDPU6bc+fOyYEDB6RIkSK60ZJIPiAK06ZNk+HDh0uuXLnl+PFj1pmblCtX1TyX17T46pn7fFLev5r5u/hJ0aK3LgiVFC5ejJQ9e8IkIuKgRBw7YHYQwsy687J1a6h1xU0gIPXr37RKKBwJg0JBvA6KhHux3UfYVq1abVpvN3v2RYr4Ss2a9UxhqJ4sYpBYnEVk955tsmXLarN808KhcCQMCgXxKigS7gEuJLjvJk+ecosLyRaGWjXr694TRCG+QDwgGL9tWRWrcLRq1VJdnxSN26FQEK+BIpF0sGY2BGLRokVWjUjTpoFpUhjiw5YtobJq9QLzflkYHQOpUqWqdOzYQe8n3kMOKBTEK6BIJB64lpCVtGDBwmi3EmIMbdv0kHr1Wkru3DcHQHozEI3vFk9W0YiKitQ6DOTEveVti1clFAoFSfNQJBIHBALppfjuANxKEAYIhLdZDgkBLiqIBUTDDoyXKOFrfk9TNJ6RHqFQkDQNRSLhIP4AC2L06DFy4UKkpqe+2BbWQwvrCmITEXFIxo7rL0uWOMS0bt0ACQkZk+7iGBQKkmahSCQcxB+CgrqrQMCCeLXLAGnWLNA6S+ICgjFiZJCEhjpiN4GBgWqNeevCVjGhUJA0Cdwm6NXhH5UicWcwGK5Fi5Yag8iVy0fatu1uikSwdZbEF8QxvhrbX11SyJQaMMAx0tzboVCQNAvEAgJBkXANMpkCAzuoFdGmTZBaEeklQJ1cLF48VV1SyJRq3z5Q4xfeDIWCEC8GsQhMcQIrYkDwVMYh3AiC3l1eDdDxGJUrV5U1a7zXsuWkgIR4KbAiIBKIRYwfF0qRcDOwymbPCtNxJr//Hi5169bz2skJaVEQ4oVgxtU1a0J1PMS4saF0NSUzY8cFy7hxAzRuERq62uuyomhREOJlIBsHIoGeLkUiZUBiQHD/KRoHat++g1XrPVAoSKIJ7ifSu4fIpo1WRSoBmxhLVmBL7/YxXB+Yih3upt69QjxWJFo97S/16ueTpUtnWDXx4/Dhffo4bJjwzxVY2wSbuxbMuhNIM0ayANxQSEH2JigUJNFcuYKFhRwNdGpy+rRItzcd24kTVmU6xe7NInDtyZbEpUsXdErwf/65btXED8O4oY/DdicBaNGytDxUJ6ssWDjBqkl+kFEGd98nn4Ro2ra3QKEgiea9viKDh4nc/4BVQVIVuJzQm0WvtmbNOy8GlJrMmrlNflh6VJ58so1V4x1AnCHSAMkEGAXvDWQ0by6OuiGJ4rNPRdauEcmXT6RIUZF1a0UmTxLZ+SeWQhWZMllk/jysay1SoIBIoUKOx/24XGTGdJFDB7EMqshU87rvl4hgPrrSZUSyZr39umrVHXVg2BCRn1eI5M9vWjPm47/9RuTUSce502fMf9ZcN18rvYAGqXHjxupyGjL4a/M7zGadSTxTpg6TgR+9Ir/9tlqeePw5rQv55H8yfHg3+eWXH8zXe1HrRozsLiNHYZXBvfJwncbq/ps+Y6SOZB4z5m1Ztny2Lmdb6b4HxV5r6q1ujeXbb7+SwvcUl1KlKmodlsT99LN3ZfDg1+Qb81zGjJll46af5KNBXeTMmRNy//0NJDLyjHw99zO9vtGTbfV1h33c1bQaxku2rDmkfPkapqVhyHvvt5Xdu7eZz/mv+djjumhWlcq11QqZNTvEfI1X9bMsWDBO/vhjs5QuXcm8Zwvq8yaVAgUK637lykXm+ynvFYFtWhQk0aBxPnHc4YICly45yvv2miLyicj+fQ7XFARg7JdozBzXRV10XLdjhyksE0UijopciBT57VeHCFy9eut1Z885yjb26+K6a+aGx9voc12wCukIDKoDbdr0cJvLqWyZKnLw4C5Zu3axXL9+TetwjLoNG5aZv635g5uEhn6ndX5+FbT84cCXJSSkt+zf/6cULlxC9yNGdJMhQ1/X8+Dvv/fpY+xZWkHfD16UadM+lqNH98uRI3/JkCGvaUOO69DYx6T3263MxvhbOXfulIrUR4NeMTslZm9FDNm587dotxYGxR05Yt6MJl9+1U9GmeKyd+928fHJLydPHpXlppC90qWunD59+2skFkysCDAjrzdAoSBuB8LR8mmzpzlapHMXR911838WAuIMhOCxJ8xeqtlB7PW2w5I4d1Zkze0rWcZJqdIi3XtaBZO3gkQerG0V0hG2UNSv577psLH+RJYsWbXB3blziw4wQ6N9110ZtWeOxvjs2VMSEXFAr3+4TiMdfLZ48WTJnDmLzJyxVeZ+/buM/WqlLls7f/5Y+esvs3cQCzt2/Co//vi1HiN7aMP6q9Lvg4kuA9b+/tVlyeJDsmjhX6ZVW8i0ZAzTAvnRfH93ycIFe6VgwSJ63euvfyT/62OavyY//OAInr/xxiDzsQdl1cqzpvVZ1PwcJ2XNmsV6zh1ArAMCWsh3391c1yMtQ6EgbqeAacHXbyCC5bFr1DT/afI46mP29HPmFGnazLwJzbsQLic71rFrl2NP4s+5c+fV7eTO6cGzZcsu1avX1eOw8PVmY75ZG2N74N7vf2yUP8wN+PmVN1/bz2yoV+g1KMNagFsnS5ZsZmNcTOshCLGx7pfvdQ/XEbKH0Ni3aNFJqlZ9WOtjo1PH90yLpbjce28pue8+x80Tm+XhjC0eM2eOkmEfvyVhYb/Id4v2y5bfDHn66Vf0nLvw93e4nLwhqE2hIG7HjjHYZIvDXV7obpFMmayCCeIc4PQpx57EH6TFYr1qd/Pww010v337LyoMoM0LQdqQ//HHpui6OqY1AWwXD1w7gR0ejN5Onjyi9QcPxd4LgKsJIFbgDKyGuLAbfZApU2bryDUvd+orefLk11jH3LmfyVvdGmmq7egxvU1L+LJ1lXsoWqSkdZT2oVCQVAPxC2fscq5cjr0NgqPOpFBafJoCA72SgzoPOQRg+/b18vvvG00rMadUq/aIxiNUKMw68HAdh6DkzJlb95UqPSghY76/bXuqSTs9H5Ps2R0/OtJmnYmKcm/W0KOPPiXLlx2T0aO+k+bNO0n+/HfLtWtXZMaMkTJ9xgjrKveQO7f3zPtEoSCpxskTjowmgLEYW35zHN97r2NvdxIjzM6oLQ5HzGM72B0bMUUlvYAFddzdqIKSJcurSws+/M2bV6gAwJqoVOkBOXUqwrRk1pkWYw6pUcPhoirp58hgunDhnGllNJZHHmmi1saBg7tk9x5kIf2n52NiB8LxGngt4K64gf2ax44dVnfT6DG9pHbtJ6R/v4my7IeIaKvpzz9jd4slFnxeb4FCQVIVZEfNmSUyfJjI8WOOeEWDxxznihVz7GFpDBoo8uXnIh8PcdQ5k9nJ67B6JRoEq5COQNopAskIOLubhyyrAkFtO2Zw330P6h51tWrV16A3ePLJF+Tuu++Vw4f3SFD3JjJr9ifSLaiJjDEb55kzR2tMITaaPtXetEbymL91lLqqkJb74ks1b8mKSiiIsYAVK+Zqii8C3kuWTFGX06uvNZBx4z+UMSFvy7Zta/Q6V/GQxGAH4pkeS0gSKFlKpLivI8vp78OOBj+wo5iNieN89Roi5R0dVDkWIfL7drMhauwIkjvj4yPia7nnMa5jdzoMhtuL/2OtZ3eDsRE2Vas4GtNKVvAY1LHcTgDjN0aOWGhahaVl/fplMnJkkGzYsFzHSoz9apXkyZPPuvJW8uTJK0OHzNXp0NHALlw4QV03WMM7sSDrCGzZslrmzvtchWPY0G80ywmutLFj+8usWaNVnBo2fEbavdRbr3cX+C1KlPD1iqnHOXssSXHmf2P28n4SKesvZq/T4X5CRhRSXXM7XNzR4O48eMAxBqN4CQQwrRMxgOtq1070cB3PA/FIT2ARp5IlS+r61+PHpX6WDeZY2rdvuzb6cF1VrHi/Wj13IirqgsY9kF5buXJtGTrsTfnuu0nStm0P6dVzlHVV/EFWE8ZKlClT2RQrh3sLg//+/PM3DbDDEipZsqIUL27eNG4ECxsFD+ggQUEYdDjGqk27UChIiuMsFD2cxkCQpIGlTpG337PnGHmxbZBVmzZAwzpyVHfBGI0RwxdItWoPy+bNP8u77z2v8Y5hQ+fJY489Y13t2cD917SZr7pRw8PDxBvW1abriRAvActxYj2EceP6mz35Q1Zt2uDxx5+TcuWqadoqRkk//EgOebPrEyoSzZt3TDMiAfoHB2psBetpe4NIAFoUJMXZHi6yZ7dIwUIi9epblcQtYIR2q1atPMYFlVBgRezctc0UjNM6SK9mjbo6G2taYfXqRdKrd0t59NEAXRrVW6BQEOJlpGUXVFoGVlybtlW9yuVkQ6EgxMvATLK+vn46CA9TjvfulfaDqZ4OUpNf6YKxLJEyefJk6dDBu1a5Y4yCEC8D6Zjo0VauXFVmzw6Rnr1aJsv4CuIAgfg2bat5rUgAWhSEeCmwLJo3bylr14aqn5/rZ7ufseOCZdy4AZpEEBq62isG18UGLQpCvBRYFgiotm8fqK4RpGxu2ZKAOdxJnCAeAUsNIgHLzZtFAtCiICQdMGXKFOnYsaMeIyPq7d4haSqbyFOAC2/W7NEya9YYdTVhjq1FixZ6xehrV1AoCEknYPR29+7dzYbNsZhO06aB8mqXAW5dw8KbQSwCy7tCIDA1B8ZJeGM8IjYoFISkM7CQTv/+wbJmTajOrdS2bXddupPxi9iBuw6D6LCkKmIRPXp0l+DgYOts+oBCQUg6Be4oCMbhw4dUMDABX/NmHaVmzQDrivQLYhCrVi+U2bNHq0AAzNsEgfB2N1NsUCgISccgMwqCMXnyFNmOIfMmmMSvWbMO0qxpx3TnloJ7adXqBRIa6nDPwYJo1aqlCoQ3DaBLKBQKQoiC5VQx0+mCBQt1sB5A4NthZdTzWtGAa+m7xZN1WnDEH0Dz5i1UINJLDOJOUCgIIbcBKwPzRtmBbwBLA4JRq2b9NC0cEIbftqzSxYy2br2ZLowAdceOHVQc0rP1EBsUCkJInCBTCsFvbKtWrdZ4hk1aEA6ks+7ZExarMICAgACpV6+eLvzkzeMgkgqFghASb1wJB8DYjFy58kqtWvXMfT4p71/NFBS/ZBURWwywSFLEsQOye3eYWXf+NlEAtjDYG4kfFApCSKKxhcPenzt3PjooHhNYIBANZ/xNIcGSp/HBFgBnYhMDULy4r5Qq5adWArKUKAxJg0JBCHE7EA5sCJAjswoigpbmxg2RdeuSPo0IhABxBEzp7SwG2NOF5H4oFISQVMcWlNigJZD6UCgIIYS4hLPHEkIIcQmFghBCiEsoFIQQQlxCoSCEEOISCgUhhBCXUCgIIYS4hEJBCCHEJRQKQgghLqFQEEIIcQmFwoOIiIiwjlzz999/W0euuXr1qpw5c+a2jTj4448/ZNWqVVYpbg4fPizr16+3SqlPfN93SnLjxg3ZsGGDHDhwwKpJGv/++6/MmTMnzmk97gTu/ZUrV8rEiRNl586dVi1JLBQKD+Hbb7/VhWLiA/4hp06dapXi5vjx4zJ79mwpWbKkFCxYUF544QX95yEOevbsKc8++6xVuh00Vv/73//E19dXJk+ebNWmPnd63ynN2rVrdfruOnXqyPbt263apLF582Zp06aNzJgxw6qJPxcuXNB73cfHR3799VepVKmS2wQs3YK5nkjqMmvWLOPDDz+0SvHjq6++MkyxsEquadGiBebzMtasWWPVxJ89e/YY165ds0reBT7bxo0brdJNzB67dWQYZk/ZyJUrl9G5c2erJuVxfj8grvedmvz00096j5mdHasmaZgibSxevNgwG32rJv7gfwn3PPjnn3+Mb775xvjvv/+0TBIHLYpU5tixYzJy5Eh55513rJr48corr8inn36qbog7kT17dt3nyJFD9/Hl8uXL0rp1a7ly5YpV412ULVtWHnzwQavkYPr06TJhwgSrJJIhQwbJli2bVUp54DZ57bXXrJKD2N53apM7d27ryD1kzJhRmjZtmqjn/fHHH6MflylTJr2H78J85CTR8NtLZd5//315+umnJXPmzFaNA1PE1cUE15HZe9SyM7jx27dvL927d7dqEs6WLVvk3LlzcvHiRVmyZIm+ng3E4aWXXpLff/9dtm3bJuHhty5Gg7qvv/46VqHCe4VPf968ebJ7926r9lauX78uoaGh6nI7cuSIVesAj8dnBjt27JBffvlFj12B18H7+fnnn+XSpUtWrQP4q/F+4UeHb/+vv/7SerwOntv+buGWe/XVV+XEiRP63Zw6dUrrbXAdpsM2e6hy8uRJq9ZBVFRU9Ps8evSozJ8//5bPhdfE42KLL8X1XeBas2esr4X3s3//fq2P+b5tTMtPnwffg31tfMBvbf9esfnzESeAKwjg98D7vFOsC+/X3ux7AN+/XRfzu42N06dPy59//mmVHOCxcd2zZ8+e1fP4DvH+cBzTFebqvsVr4bPCZbt06VIxrRDrjOvHuXpPzsD9he/YtL7EtHSs2pu4eo3UhkKRimBhF8QannjiCavGAW469BjRONeqVUtMU1pefPFF6+xN4BdGw4jGKyHs2rVLH4vnxo3Zrl07+eijj9THPHr0aL3m0KFD2hsDaDzsf3ZYGW+88YbezGiYHnvsMXn99df1HECj3LBhQ/UN33333fLkk09K4cKFpUmTJjJ+/Hi9Bq8PgcM/9r59+6RcuXIybdo0PTdz5kwpU6aMNGvWTK9v0KCBrkeA542Lzp07y4gRI+SBBx7Q7wN7fIdoAIODg6VIkSL6+bp27SpPPfWULp4/a9YsfZ1HHnlEGzCABhlxCTQy+Hx4Dht8VvTsBw4cKC+//LJUrlw5urGEBVK0aFH9THgfffr00dctXbq0/jbvvfee/oYff/yxVKlSRYPjNq6+C4gLrBl8drwfNICxvW+Axgn3CK7F4j333XefDBo0yDobN1hQCD13iGuhQoWkU6dO2nGxPzvuB/x+eP/4XOjY4BosDoRYQFzgu8TvgM5Mnjx5tA6dG9xLQUFBkiVLFq2LDTSosJjxnaKjBOJzz6KRx/cE0cb3ieP43LcQyfr16+t3BhHEMe4TfDeuHhef9wTwO3Xr1k3vbcQLcb9UqFAhulNwp/8pj8DslZBUwux1ql/XvKmtGgfjxo3TerNHpWX7OrOB0bIN/LgZMmQwBg8ebNXEzgsvvKCP/+2336wawzBvWq0zGzSrxjDMG9woVaqUVTKMoUOH6jXmP6BVYxjmDW989913VskwzH8IveaHH37QMt6L+c+gx2DGjBl63uwtaRk+49q1axtmI6tlAH9yjhw5oj9vq1atDNPC0uc0GzBj2bJlWh8b8Nfj+c1/cC3ju0TZbGy1bP6TGvnz5zdM0TIiIiIM85/T2LRpk54z/xn1WnyPNmbDbJgNt1VyULBgQaNSpUr6eGA2IPq4sWPHahmYgqavYwqsls0G2zAbQ8MUC8PsoWpdZGSkkTFjRmPYsGFajs930ahRI8NslPXYJub7xrXOrwPatGljmAJplWIH15uiYpjWiVVjGKZAGD4+PoZpTVo1hlG2bFnD19fXMDs2Wv7xxx9v+Y4BYiaoc45RPPvssxrfwee2MYVWYw93wrTq9Pn69u1r1cTvngV+fn56zztzp/s2JCREyx988IHeM/iMuPfu9Lj4vCdTsI2ePXtaJcMwxdIwRTP6/rnTa3gCtChSEfSu0MtCD9AZ+FSRAVWgQAEtwwR33tvAjwtf7N69e62a+IOMEIDei839999/i+sjJuitfv755+pCQY8HG3pdZmMg69at02tMMYqOiQD7+W0XAlw/6ImhZ2o/B1w9+B7wWIDPnTNnTjEbSY2rwCqJC/Ta586dq9eCmN8VYgxmA669PFgWxYoV054usL/f+GA26Pp4YMcHnN1I6DXDgipRooSWs2bNKv7+/tqDvOeee7QO1+TLl08tSRCf7yI2Yr7vL774Qq0M+3UAeq2mIFql2ME16M3is9ngXnz++ec128h2r+FeQVwE2V8A9wlwda8AZIyhd292fKwah3vP/q1cEdtvk5h7FsTnvrVfD/97uGcef/xx/R3u9Lg7vSe4mGCFOmeplS9fXswOjlpm8XlvngCFIhWBeweNKm5MZ9CwwfRFSibcFXYuubOrwQZCAd+oO0CcJLbXsIGwwW8Ls/rLL7/UDYKG14fJDWrUqKHChQYPwJWDz4cURQDzunjx4tGPxwa3CZ7DWRBst5fN9OnTxbQ0ojekTgL8M+OfEO4DvAfEVEDMzxHz+ZKCHdzGZ3MFxCImeB92ckB8v4s7Ad827hlnILB4bhDXd4fXBzHvP/u3QjwiNux4mqt7BdSsWVNdh2ZvXRtMuOFQ587f4k73LIjPfWvj/N4S8jhnnN8TngNiEPP3QQcHr5XY10hpKBSpCHoj8A07B80AeqroAcNnDL8wGt+4wA1lmrlWKXlB7xDEDDA68+abb6r/HIFw9JjRWx42bJj65gGeA4FW+GITAnrq6Pnam92rRQOE11qxYoW+FoK/aYXEfhcxQawA8Y24iOu7g9WGQHrMwLzdqOH+SyqwKtC7xuA5xBsCAwOtMylHfO7b2Ejs45yx4zhx/T7ueI2UgEKRilSsWFH3zkFTgH8uCAiCjCCuHhN6tLgR7edJLuyeM9wbAGm5MUGvEcB10bx5cw3QoqcKi+jtt9/WcwAuDHw2jJh1JjIy0uWgNgQN8b3YGwadATwGQcJevXrp692pdxkf7mQpuIv4fhd3ej8IwiJ5wM5MsoGbB9lFcX13tmAgAcAZzBAAVwxcZ0kFiRoIfCPID0vTtlZSkvjct7GR2Mc5g6C17cJyBp1DBM7d8RopAYUiFYF7AeZnzNRTuKTwT4XeJrI3Fi9erPU4tnsgAH5ONI62zz0u0BgB58fajY+zNYOeLRpa9NKBHTuBeQxBwg2PHjtiAsggwvtGY4RsD2R+gDFjxqglgYYGrg/DMG5p6CAi8PVDSPDPgawU+GeRiYRzAK4ZvGf7fbgC3xVYvny5vn/0WvGdOH9XeD7bfeeM3ZN3fh18ZnxeYMd+cB49bxv72Plx8PXHtAzxuZ0fB3CN/bj4fBd4P7bVgSwo/D4x3zd+C7g70LGAmwkuHvwOSJV1ZRV07NhR/eWIcdjvHb8XUjhhBdouJnyOmPcJgEvFBpYtiPkdgAEDBmiaKrLh4ktsv0187lmA9+X83vAd3+m+td2BzvdJfB53p/eE/wNcj3RbWL5wLeJeRR2EOj6v4RFoSJukGuY/q/H+++9bJQemma5ZP1mzZjWaNWtmmGapkTNnTsO86QzzhrOuMgyzMTDMG8oq3c6uXbs0Cyl79uyaRVG7dm3NqDIbJOPxxx/XulatWmnm0Pfff2+YDbvWvfPOO5q1gyyrfPnyGXny5DF69OihWTbIRrEfiw0ZJs7vCVlOyByyz2PLnz+/Yf4TaJYPMHu+htmTij7/yCOP6HsAeDwylFDfp08fw2ystT4uzEbdMBtDvb5GjRqaffPwww/r9/fRRx/p58c5vCd8dmT1ALMxjH4P+LxHjhzR+t69e2ud+U+sz2VaRFouXLiwZp8hQwnvC3XlypUzzH984+uvvzZy586tmSxmg2+YomGYVoK+JjKYJk2aZJiipdkspogZxYoVi85ycfVdgEWLFunz4nueMGFCnO97yZIl0d+b2fmI/r3uxNGjR43GjRsbpsjo94MR6Hi/Nl9++aXeh8heMq0c/f46deqkr2Nassb69euNLVu2GE899ZTWNWnSRL8TZ8xG07jnnntuye5yxb59+wzTQtTnM60a/WzxuWeRlTVkyBAtmwJrjB8/Pvr7cXXfrlu3zjA7W1qP/zfnLDBXj4vv/5HZydIMMPyOqDetjOjMO3Cn/ylPIAP+mG+OpBII+sKywAAq+Ixt0CNGL8XuEcIdAewsC/RWEMdYsGCB3HvvvVqXHMCSQO8MGT3OwF2Gc/B/owdvgx4tMjYQk8DAJVgGuA5WUcuWLTWYagPfNQK+SfWFozcIP7udlYPvBllP6K0lBmQlwRpCVllK4eq7wOh9JC3ge3UF/pXx3pH9hGB2QsDvhO/M/g7dCcaNwOVlj4lITeK6b+9EYh/nDKwu/F/H9R274zWSCwqFB7BmzRr1E8NEjy+4Fm4DpDJ6Clu3btWMGrhQYoKJ42COw19O0heIHz3zzDPy0EMPWTUkrcEYhQdQt25dbUDjG7yCTxn+TU8SCQDfPrI7kNaH8QEIpGKPPHrkhFMk0g+IkcDHjllcYeVQJNI2tCg8CLiXbNeSK2DC2pOeeRK4lRCURcYOGgdMwQAXFIK1njaJHUlekA6LbLfq1avr/WAPaCNpEwoFIYQQl9D1RAghxAUi/wfvGvP7b28ODQAAAABJRU5ErkJggg==;" vertex="1" parent="1">
          <mxGeometry x="-150" y="-160" width="394" height="372" as="geometry" />
        </mxCell>
        <mxCell id="hH6mXbKhECupBvVUBIA4-7" style="rounded=0;orthogonalLoop=1;jettySize=auto;html=1;exitX=0.5;exitY=1;exitDx=0;exitDy=0;entryX=0.25;entryY=0;entryDx=0;entryDy=0;" edge="1" parent="1" source="hH6mXbKhECupBvVUBIA4-2" target="hH6mXbKhECupBvVUBIA4-14">
          <mxGeometry relative="1" as="geometry">
            <mxPoint x="458.7867965644032" y="288.78679656440295" as="targetPoint" />
          </mxGeometry>
        </mxCell>
        <mxCell id="hH6mXbKhECupBvVUBIA4-2" value="&lt;font style=&quot;font-size: 20px;&quot;&gt;&lt;b&gt;input&lt;/b&gt;&lt;/font&gt;" style="rounded=1;whiteSpace=wrap;html=1;" vertex="1" parent="1">
          <mxGeometry x="360" y="217" width="80" height="40" as="geometry" />
        </mxCell>
        <mxCell id="hH6mXbKhECupBvVUBIA4-6" style="rounded=0;orthogonalLoop=1;jettySize=auto;html=1;exitX=0.5;exitY=1;exitDx=0;exitDy=0;entryX=0.75;entryY=0;entryDx=0;entryDy=0;" edge="1" parent="1" source="hH6mXbKhECupBvVUBIA4-3" target="hH6mXbKhECupBvVUBIA4-14">
          <mxGeometry relative="1" as="geometry">
            <mxPoint x="501.2132034355966" y="288.78679656440363" as="targetPoint" />
          </mxGeometry>
        </mxCell>
        <mxCell id="hH6mXbKhECupBvVUBIA4-3" value="&lt;font style=&quot;font-size: 20px;&quot;&gt;&lt;b&gt;weights&lt;/b&gt;&lt;/font&gt;" style="ellipse;whiteSpace=wrap;html=1;" vertex="1" parent="1">
          <mxGeometry x="520" y="212" width="100" height="50" as="geometry" />
        </mxCell>
        <mxCell id="hH6mXbKhECupBvVUBIA4-9" style="rounded=0;orthogonalLoop=1;jettySize=auto;html=1;entryX=0.5;entryY=0;entryDx=0;entryDy=0;exitX=0.5;exitY=1;exitDx=0;exitDy=0;" edge="1" parent="1" source="hH6mXbKhECupBvVUBIA4-14" target="hH6mXbKhECupBvVUBIA4-8">
          <mxGeometry relative="1" as="geometry">
            <mxPoint x="480" y="339.9999999999998" as="sourcePoint" />
          </mxGeometry>
        </mxCell>
        <mxCell id="hH6mXbKhECupBvVUBIA4-15" style="edgeStyle=orthogonalEdgeStyle;rounded=0;orthogonalLoop=1;jettySize=auto;html=1;entryX=0.5;entryY=0;entryDx=0;entryDy=0;" edge="1" parent="1" source="hH6mXbKhECupBvVUBIA4-8" target="hH6mXbKhECupBvVUBIA4-12">
          <mxGeometry relative="1" as="geometry" />
        </mxCell>
        <mxCell id="hH6mXbKhECupBvVUBIA4-8" value="&lt;font style=&quot;font-size: 20px;&quot;&gt;&lt;b&gt;add&lt;/b&gt;&lt;/font&gt;" style="ellipse;whiteSpace=wrap;html=1;aspect=fixed;" vertex="1" parent="1">
          <mxGeometry x="450" y="400" width="60" height="60" as="geometry" />
        </mxCell>
        <mxCell id="hH6mXbKhECupBvVUBIA4-11" style="rounded=0;orthogonalLoop=1;jettySize=auto;html=1;entryX=1;entryY=0;entryDx=0;entryDy=0;exitX=0.5;exitY=1;exitDx=0;exitDy=0;" edge="1" parent="1" source="hH6mXbKhECupBvVUBIA4-10" target="hH6mXbKhECupBvVUBIA4-8">
          <mxGeometry relative="1" as="geometry" />
        </mxCell>
        <mxCell id="hH6mXbKhECupBvVUBIA4-10" value="&lt;font style=&quot;font-size: 20px;&quot;&gt;&lt;b&gt;biases&lt;/b&gt;&lt;/font&gt;" style="ellipse;whiteSpace=wrap;html=1;" vertex="1" parent="1">
          <mxGeometry x="520" y="330" width="100" height="50" as="geometry" />
        </mxCell>
        <mxCell id="hH6mXbKhECupBvVUBIA4-21" style="rounded=0;orthogonalLoop=1;jettySize=auto;html=1;entryX=0.5;entryY=0;entryDx=0;entryDy=0;" edge="1" parent="1" source="hH6mXbKhECupBvVUBIA4-12" target="hH6mXbKhECupBvVUBIA4-22">
          <mxGeometry relative="1" as="geometry">
            <mxPoint x="480" y="570" as="targetPoint" />
          </mxGeometry>
        </mxCell>
        <mxCell id="hH6mXbKhECupBvVUBIA4-12" value="&lt;font style=&quot;font-size: 20px;&quot;&gt;&lt;b&gt;ReLU&lt;/b&gt;&lt;/font&gt;" style="rounded=1;whiteSpace=wrap;html=1;" vertex="1" parent="1">
          <mxGeometry x="440" y="500" width="80" height="40" as="geometry" />
        </mxCell>
        <mxCell id="hH6mXbKhECupBvVUBIA4-14" value="&lt;font style=&quot;font-size: 20px;&quot;&gt;&lt;b&gt;conv&lt;/b&gt;&lt;/font&gt;" style="rounded=1;whiteSpace=wrap;html=1;" vertex="1" parent="1">
          <mxGeometry x="440" y="290" width="80" height="40" as="geometry" />
        </mxCell>
        <mxCell id="hH6mXbKhECupBvVUBIA4-16" value="float32" style="text;html=1;align=center;verticalAlign=middle;resizable=0;points=[];autosize=1;strokeColor=none;fillColor=none;" vertex="1" parent="1">
          <mxGeometry x="370" y="272" width="60" height="30" as="geometry" />
        </mxCell>
        <mxCell id="hH6mXbKhECupBvVUBIA4-17" value="float32" style="text;html=1;align=center;verticalAlign=middle;resizable=0;points=[];autosize=1;strokeColor=none;fillColor=none;" vertex="1" parent="1">
          <mxGeometry x="540" y="272" width="60" height="30" as="geometry" />
        </mxCell>
        <mxCell id="hH6mXbKhECupBvVUBIA4-18" value="float32" style="text;html=1;align=center;verticalAlign=middle;resizable=0;points=[];autosize=1;strokeColor=none;fillColor=none;" vertex="1" parent="1">
          <mxGeometry x="420" y="360" width="60" height="30" as="geometry" />
        </mxCell>
        <mxCell id="hH6mXbKhECupBvVUBIA4-19" value="float32" style="text;html=1;align=center;verticalAlign=middle;resizable=0;points=[];autosize=1;strokeColor=none;fillColor=none;" vertex="1" parent="1">
          <mxGeometry x="540" y="390" width="60" height="30" as="geometry" />
        </mxCell>
        <mxCell id="hH6mXbKhECupBvVUBIA4-20" value="float32" style="text;html=1;align=center;verticalAlign=middle;resizable=0;points=[];autosize=1;strokeColor=none;fillColor=none;" vertex="1" parent="1">
          <mxGeometry x="413" y="470" width="60" height="30" as="geometry" />
        </mxCell>
        <mxCell id="hH6mXbKhECupBvVUBIA4-22" value="&lt;font style=&quot;font-size: 20px;&quot;&gt;&lt;b&gt;output&lt;/b&gt;&lt;/font&gt;" style="rounded=1;whiteSpace=wrap;html=1;" vertex="1" parent="1">
          <mxGeometry x="440" y="580" width="80" height="40" as="geometry" />
        </mxCell>
        <mxCell id="hH6mXbKhECupBvVUBIA4-23" value="float32" style="text;html=1;align=center;verticalAlign=middle;resizable=0;points=[];autosize=1;strokeColor=none;fillColor=none;" vertex="1" parent="1">
          <mxGeometry x="413" y="550" width="60" height="30" as="geometry" />
        </mxCell>
      </root>
    </mxGraphModel>
  </diagram>
  <diagram id="jeKjxFqBLcCtOtR5zGVu" name="Page-2">
    <mxGraphModel dx="333" dy="660" grid="1" gridSize="10" guides="1" tooltips="1" connect="1" arrows="1" fold="1" page="1" pageScale="1" pageWidth="850" pageHeight="1100" math="1" shadow="0">
      <root>
        <mxCell id="0" />
        <mxCell id="1" parent="0" />
        <mxCell id="RKzKLhZImWJ3u_-ny9YQ-43" value="" style="rounded=0;whiteSpace=wrap;html=1;dashed=1;strokeWidth=1.5;" parent="1" vertex="1">
          <mxGeometry x="1030" y="639" width="590" height="50" as="geometry" />
        </mxCell>
        <mxCell id="RKzKLhZImWJ3u_-ny9YQ-14" value="" style="rounded=1;whiteSpace=wrap;html=1;fillColor=#ebf0f9;strokeColor=#000000;" parent="1" vertex="1">
          <mxGeometry x="1026" y="235" width="150" height="215" as="geometry" />
        </mxCell>
        <mxCell id="RKzKLhZImWJ3u_-ny9YQ-8" style="edgeStyle=orthogonalEdgeStyle;rounded=0;orthogonalLoop=1;jettySize=auto;html=1;exitX=0.5;exitY=1;exitDx=0;exitDy=0;entryX=0.5;entryY=0;entryDx=0;entryDy=0;" parent="1" source="RKzKLhZImWJ3u_-ny9YQ-1" target="RKzKLhZImWJ3u_-ny9YQ-2" edge="1">
          <mxGeometry relative="1" as="geometry" />
        </mxCell>
        <mxCell id="RKzKLhZImWJ3u_-ny9YQ-1" value="&lt;font style=&quot;font-size: 18px;&quot;&gt;&lt;b style=&quot;&quot;&gt;$$Input_1$$&lt;/b&gt;&lt;/font&gt;" style="rounded=1;whiteSpace=wrap;html=1;fillColor=#e6e6e6;strokeColor=#36393d;" parent="1" vertex="1">
          <mxGeometry x="1056" y="170" width="100" height="45" as="geometry" />
        </mxCell>
        <mxCell id="RKzKLhZImWJ3u_-ny9YQ-9" style="edgeStyle=orthogonalEdgeStyle;rounded=0;orthogonalLoop=1;jettySize=auto;html=1;exitX=0.5;exitY=1;exitDx=0;exitDy=0;entryX=0.5;entryY=0;entryDx=0;entryDy=0;" parent="1" source="RKzKLhZImWJ3u_-ny9YQ-2" target="RKzKLhZImWJ3u_-ny9YQ-3" edge="1">
          <mxGeometry relative="1" as="geometry" />
        </mxCell>
        <mxCell id="RKzKLhZImWJ3u_-ny9YQ-2" value="&lt;font style=&quot;font-size: 18px;&quot;&gt;&lt;b style=&quot;font-size: 18px;&quot;&gt;Conv2D&lt;/b&gt;&lt;/font&gt;" style="rounded=1;whiteSpace=wrap;html=1;fillColor=#f9f7ed;strokeColor=default;fontSize=18;" parent="1" vertex="1">
          <mxGeometry x="1056" y="250" width="100" height="45" as="geometry" />
        </mxCell>
        <mxCell id="RKzKLhZImWJ3u_-ny9YQ-10" style="edgeStyle=orthogonalEdgeStyle;rounded=0;orthogonalLoop=1;jettySize=auto;html=1;exitX=0.5;exitY=1;exitDx=0;exitDy=0;entryX=0.5;entryY=0;entryDx=0;entryDy=0;" parent="1" source="RKzKLhZImWJ3u_-ny9YQ-3" target="RKzKLhZImWJ3u_-ny9YQ-4" edge="1">
          <mxGeometry relative="1" as="geometry" />
        </mxCell>
        <mxCell id="RKzKLhZImWJ3u_-ny9YQ-3" value="&lt;font style=&quot;font-size: 18px;&quot;&gt;&lt;b style=&quot;font-size: 18px;&quot;&gt;BN&lt;/b&gt;&lt;/font&gt;" style="rounded=1;whiteSpace=wrap;html=1;fillColor=#fedfd2;strokeColor=default;fontSize=18;" parent="1" vertex="1">
          <mxGeometry x="1056" y="320" width="100" height="45" as="geometry" />
        </mxCell>
        <mxCell id="RKzKLhZImWJ3u_-ny9YQ-46" style="edgeStyle=orthogonalEdgeStyle;rounded=0;orthogonalLoop=1;jettySize=auto;html=1;exitX=0.5;exitY=1;exitDx=0;exitDy=0;entryX=0;entryY=0.5;entryDx=0;entryDy=0;" parent="1" source="RKzKLhZImWJ3u_-ny9YQ-4" target="RKzKLhZImWJ3u_-ny9YQ-44" edge="1">
          <mxGeometry relative="1" as="geometry" />
        </mxCell>
        <mxCell id="RKzKLhZImWJ3u_-ny9YQ-4" value="&lt;font style=&quot;font-size: 18px;&quot;&gt;&lt;b style=&quot;font-size: 18px;&quot;&gt;Relu&lt;/b&gt;&lt;/font&gt;" style="rounded=1;whiteSpace=wrap;html=1;fillColor=#EBFFF8;strokeColor=default;fontSize=18;" parent="1" vertex="1">
          <mxGeometry x="1056" y="390" width="100" height="45" as="geometry" />
        </mxCell>
        <mxCell id="RKzKLhZImWJ3u_-ny9YQ-47" style="edgeStyle=orthogonalEdgeStyle;rounded=0;orthogonalLoop=1;jettySize=auto;html=1;exitX=0.5;exitY=1;exitDx=0;exitDy=0;entryX=1;entryY=0.5;entryDx=0;entryDy=0;" parent="1" source="RKzKLhZImWJ3u_-ny9YQ-7" target="RKzKLhZImWJ3u_-ny9YQ-44" edge="1">
          <mxGeometry relative="1" as="geometry" />
        </mxCell>
        <mxCell id="RKzKLhZImWJ3u_-ny9YQ-7" value="&lt;font style=&quot;font-size: 18px;&quot;&gt;&lt;b style=&quot;&quot;&gt;$$Input_2$$&lt;/b&gt;&lt;/font&gt;" style="rounded=1;whiteSpace=wrap;html=1;fillColor=#e6e6e6;" parent="1" vertex="1">
          <mxGeometry x="1225" y="170" width="100" height="45" as="geometry" />
        </mxCell>
        <mxCell id="RKzKLhZImWJ3u_-ny9YQ-13" value="&lt;font style=&quot;font-size: 18px;&quot;&gt;&lt;b style=&quot;&quot;&gt;$$Output$$&lt;/b&gt;&lt;/font&gt;" style="rounded=1;whiteSpace=wrap;html=1;fillColor=#E6E6E6;strokeColor=default;" parent="1" vertex="1">
          <mxGeometry x="1140" y="550" width="100" height="45" as="geometry" />
        </mxCell>
        <mxCell id="RKzKLhZImWJ3u_-ny9YQ-23" style="edgeStyle=orthogonalEdgeStyle;rounded=0;orthogonalLoop=1;jettySize=auto;html=1;exitX=0.5;exitY=1;exitDx=0;exitDy=0;entryX=0.5;entryY=0;entryDx=0;entryDy=0;" parent="1" source="RKzKLhZImWJ3u_-ny9YQ-15" target="RKzKLhZImWJ3u_-ny9YQ-18" edge="1">
          <mxGeometry relative="1" as="geometry" />
        </mxCell>
        <mxCell id="RKzKLhZImWJ3u_-ny9YQ-15" value="&lt;font style=&quot;font-size: 18px;&quot;&gt;&lt;b style=&quot;&quot;&gt;$$Input_1$$&lt;/b&gt;&lt;/font&gt;" style="rounded=1;whiteSpace=wrap;html=1;fillColor=#e6e6e6;strokeColor=default;fillStyle=auto;" parent="1" vertex="1">
          <mxGeometry x="1360" y="170" width="100" height="45" as="geometry" />
        </mxCell>
        <mxCell id="RKzKLhZImWJ3u_-ny9YQ-25" style="edgeStyle=orthogonalEdgeStyle;rounded=0;orthogonalLoop=1;jettySize=auto;html=1;exitX=0.5;exitY=1;exitDx=0;exitDy=0;entryX=0.5;entryY=0;entryDx=0;entryDy=0;" parent="1" source="RKzKLhZImWJ3u_-ny9YQ-16" target="RKzKLhZImWJ3u_-ny9YQ-20" edge="1">
          <mxGeometry relative="1" as="geometry" />
        </mxCell>
        <mxCell id="RKzKLhZImWJ3u_-ny9YQ-16" value="&lt;font style=&quot;font-size: 18px;&quot;&gt;&lt;b style=&quot;&quot;&gt;$$Input_2$$&lt;/b&gt;&lt;/font&gt;" style="rounded=1;whiteSpace=wrap;html=1;fillColor=#e6e6e6;" parent="1" vertex="1">
          <mxGeometry x="1510" y="170" width="100" height="45" as="geometry" />
        </mxCell>
        <mxCell id="RKzKLhZImWJ3u_-ny9YQ-24" style="edgeStyle=orthogonalEdgeStyle;rounded=0;orthogonalLoop=1;jettySize=auto;html=1;exitX=0.5;exitY=1;exitDx=0;exitDy=0;entryX=0.5;entryY=0;entryDx=0;entryDy=0;" parent="1" source="RKzKLhZImWJ3u_-ny9YQ-18" target="RKzKLhZImWJ3u_-ny9YQ-19" edge="1">
          <mxGeometry relative="1" as="geometry" />
        </mxCell>
        <mxCell id="RKzKLhZImWJ3u_-ny9YQ-18" value="&lt;font style=&quot;font-size: 18px;&quot;&gt;&lt;b style=&quot;font-size: 18px;&quot;&gt;CvBNRelu&lt;/b&gt;&lt;/font&gt;" style="rounded=1;whiteSpace=wrap;html=1;fillColor=#ebf0f9;fontColor=#333333;strokeColor=default;fontSize=18;" parent="1" vertex="1">
          <mxGeometry x="1360" y="260" width="100" height="45" as="geometry" />
        </mxCell>
        <mxCell id="AnSSPBnwZAtThqySYZZ1-4" style="edgeStyle=orthogonalEdgeStyle;rounded=0;orthogonalLoop=1;jettySize=auto;html=1;exitX=0.5;exitY=1;exitDx=0;exitDy=0;entryX=0;entryY=0.5;entryDx=0;entryDy=0;" parent="1" source="RKzKLhZImWJ3u_-ny9YQ-19" target="AnSSPBnwZAtThqySYZZ1-1" edge="1">
          <mxGeometry relative="1" as="geometry" />
        </mxCell>
        <mxCell id="RKzKLhZImWJ3u_-ny9YQ-19" value="&lt;font style=&quot;font-size: 18px;&quot;&gt;&lt;b style=&quot;font-size: 18px;&quot;&gt;Quant&lt;/b&gt;&lt;/font&gt;" style="rounded=1;whiteSpace=wrap;html=1;fillColor=#fedfd2;strokeColor=default;fontSize=18;" parent="1" vertex="1">
          <mxGeometry x="1360" y="340" width="100" height="45" as="geometry" />
        </mxCell>
        <mxCell id="AnSSPBnwZAtThqySYZZ1-5" style="edgeStyle=orthogonalEdgeStyle;rounded=0;orthogonalLoop=1;jettySize=auto;html=1;exitX=0.5;exitY=1;exitDx=0;exitDy=0;entryX=1;entryY=0.5;entryDx=0;entryDy=0;" parent="1" source="RKzKLhZImWJ3u_-ny9YQ-20" target="AnSSPBnwZAtThqySYZZ1-1" edge="1">
          <mxGeometry relative="1" as="geometry" />
        </mxCell>
        <mxCell id="RKzKLhZImWJ3u_-ny9YQ-20" value="&lt;font style=&quot;font-size: 18px;&quot;&gt;&lt;b style=&quot;font-size: 18px;&quot;&gt;Quant&lt;/b&gt;&lt;/font&gt;" style="rounded=1;whiteSpace=wrap;html=1;fillColor=#fedfd2;strokeColor=default;fontSize=18;" parent="1" vertex="1">
          <mxGeometry x="1510" y="340" width="100" height="45" as="geometry" />
        </mxCell>
        <mxCell id="RKzKLhZImWJ3u_-ny9YQ-32" style="edgeStyle=orthogonalEdgeStyle;rounded=0;orthogonalLoop=1;jettySize=auto;html=1;exitX=0.5;exitY=1;exitDx=0;exitDy=0;entryX=0.5;entryY=0;entryDx=0;entryDy=0;" parent="1" source="RKzKLhZImWJ3u_-ny9YQ-28" target="RKzKLhZImWJ3u_-ny9YQ-31" edge="1">
          <mxGeometry relative="1" as="geometry" />
        </mxCell>
        <mxCell id="RKzKLhZImWJ3u_-ny9YQ-28" value="&lt;font style=&quot;font-size: 18px;&quot;&gt;&lt;b style=&quot;font-size: 18px;&quot;&gt;DeQuant&lt;/b&gt;&lt;/font&gt;" style="rounded=1;whiteSpace=wrap;html=1;fillColor=#FFF6E6;strokeColor=default;fontSize=18;" parent="1" vertex="1">
          <mxGeometry x="1436.5" y="480" width="100" height="45" as="geometry" />
        </mxCell>
        <mxCell id="RKzKLhZImWJ3u_-ny9YQ-31" value="&lt;font style=&quot;font-size: 18px;&quot;&gt;&lt;b style=&quot;&quot;&gt;$$Output$$&lt;/b&gt;&lt;/font&gt;" style="rounded=1;whiteSpace=wrap;html=1;fillColor=#e6e6e6;" parent="1" vertex="1">
          <mxGeometry x="1436.5" y="550" width="100" height="45" as="geometry" />
        </mxCell>
        <mxCell id="RKzKLhZImWJ3u_-ny9YQ-33" value="&lt;font style=&quot;font-size: 18px;&quot;&gt;&lt;b style=&quot;&quot;&gt;CvBNRelu&lt;/b&gt;&lt;/font&gt;" style="text;html=1;align=center;verticalAlign=middle;whiteSpace=wrap;rounded=0;rotation=-90;" parent="1" vertex="1">
          <mxGeometry x="1006" y="327.5" width="60" height="30" as="geometry" />
        </mxCell>
        <mxCell id="RKzKLhZImWJ3u_-ny9YQ-34" value="&lt;font style=&quot;font-size: 12px;&quot;&gt;&lt;b style=&quot;&quot;&gt;CvBNRelu&lt;/b&gt;&lt;/font&gt;" style="rounded=1;whiteSpace=wrap;html=1;fillColor=#ebf0f8;fontColor=#333333;strokeColor=default;" parent="1" vertex="1">
          <mxGeometry x="1040" y="649" width="70" height="30" as="geometry" />
        </mxCell>
        <mxCell id="RKzKLhZImWJ3u_-ny9YQ-35" value="&lt;font style=&quot;font-size: 15px;&quot;&gt;Conv+BatchNorm+Relu&lt;/font&gt;" style="text;html=1;align=left;verticalAlign=middle;whiteSpace=wrap;rounded=0;fontSize=14;" parent="1" vertex="1">
          <mxGeometry x="1115" y="649" width="180" height="30" as="geometry" />
        </mxCell>
        <mxCell id="RKzKLhZImWJ3u_-ny9YQ-39" value="&lt;font style=&quot;font-size: 12px;&quot;&gt;&lt;b style=&quot;&quot;&gt;Quant&lt;/b&gt;&lt;/font&gt;" style="rounded=1;whiteSpace=wrap;html=1;fillColor=#fee0d3;strokeColor=default;" parent="1" vertex="1">
          <mxGeometry x="1295" y="649" width="60" height="30" as="geometry" />
        </mxCell>
        <mxCell id="RKzKLhZImWJ3u_-ny9YQ-40" value="&lt;font style=&quot;font-size: 15px;&quot;&gt;Quantizer&lt;/font&gt;" style="text;html=1;align=left;verticalAlign=middle;whiteSpace=wrap;rounded=0;fontSize=14;" parent="1" vertex="1">
          <mxGeometry x="1359.5" y="649" width="77" height="30" as="geometry" />
        </mxCell>
        <mxCell id="RKzKLhZImWJ3u_-ny9YQ-41" value="&lt;font style=&quot;font-size: 12px;&quot;&gt;&lt;b style=&quot;&quot;&gt;DeQuant&lt;/b&gt;&lt;/font&gt;" style="rounded=1;whiteSpace=wrap;html=1;fillColor=#FFF6E6;strokeColor=default;" parent="1" vertex="1">
          <mxGeometry x="1451.5" y="649" width="70" height="30" as="geometry" />
        </mxCell>
        <mxCell id="RKzKLhZImWJ3u_-ny9YQ-42" value="&lt;font style=&quot;font-size: 15px;&quot;&gt;Dequantizer&amp;nbsp;&lt;/font&gt;" style="text;html=1;align=center;verticalAlign=middle;whiteSpace=wrap;rounded=0;fontSize=14;" parent="1" vertex="1">
          <mxGeometry x="1526" y="649" width="94" height="30" as="geometry" />
        </mxCell>
        <mxCell id="RKzKLhZImWJ3u_-ny9YQ-48" style="edgeStyle=orthogonalEdgeStyle;rounded=0;orthogonalLoop=1;jettySize=auto;html=1;exitX=0.5;exitY=1;exitDx=0;exitDy=0;entryX=0.5;entryY=0;entryDx=0;entryDy=0;" parent="1" source="RKzKLhZImWJ3u_-ny9YQ-44" target="RKzKLhZImWJ3u_-ny9YQ-13" edge="1">
          <mxGeometry relative="1" as="geometry" />
        </mxCell>
        <mxCell id="RKzKLhZImWJ3u_-ny9YQ-44" value="&lt;font style=&quot;font-size: 18px;&quot;&gt;&lt;b style=&quot;font-size: 18px;&quot;&gt;Addition&lt;/b&gt;&lt;/font&gt;" style="rounded=1;whiteSpace=wrap;html=1;fillColor=#F3FFF2;strokeColor=default;fontSize=18;" parent="1" vertex="1">
          <mxGeometry x="1140" y="480" width="100" height="45" as="geometry" />
        </mxCell>
        <mxCell id="AnSSPBnwZAtThqySYZZ1-3" style="edgeStyle=orthogonalEdgeStyle;rounded=0;orthogonalLoop=1;jettySize=auto;html=1;exitX=0.5;exitY=1;exitDx=0;exitDy=0;entryX=0.5;entryY=0;entryDx=0;entryDy=0;" parent="1" source="AnSSPBnwZAtThqySYZZ1-1" target="RKzKLhZImWJ3u_-ny9YQ-28" edge="1">
          <mxGeometry relative="1" as="geometry" />
        </mxCell>
        <mxCell id="AnSSPBnwZAtThqySYZZ1-1" value="&lt;font style=&quot;font-size: 18px;&quot;&gt;&lt;b style=&quot;font-size: 18px;&quot;&gt;Addition&lt;/b&gt;&lt;/font&gt;" style="rounded=1;whiteSpace=wrap;html=1;fillColor=#F3FFF2;strokeColor=default;fontSize=18;" parent="1" vertex="1">
          <mxGeometry x="1436.5" y="410" width="100" height="45" as="geometry" />
        </mxCell>
        <mxCell id="PbQiK4hksTqij78IZUfs-1" value="&lt;font style=&quot;font-size: 18px;&quot;&gt;(1)&lt;/font&gt;" style="text;html=1;align=center;verticalAlign=middle;whiteSpace=wrap;rounded=0;" parent="1" vertex="1">
          <mxGeometry x="1165" y="603" width="50" height="30" as="geometry" />
        </mxCell>
        <mxCell id="PbQiK4hksTqij78IZUfs-2" value="&lt;font style=&quot;font-size: 18px;&quot;&gt;(2)&lt;/font&gt;" style="text;html=1;align=center;verticalAlign=middle;whiteSpace=wrap;rounded=0;" parent="1" vertex="1">
          <mxGeometry x="1461.5" y="603" width="50" height="30" as="geometry" />
        </mxCell>
      </root>
    </mxGraphModel>
  </diagram>
  <diagram id="r43dGk3I3ZhK-OeMbvPn" name="Page-3">
    <mxGraphModel dx="989" dy="545" grid="1" gridSize="10" guides="1" tooltips="1" connect="1" arrows="1" fold="1" page="1" pageScale="1" pageWidth="850" pageHeight="1100" math="1" shadow="0">
      <root>
        <mxCell id="0" />
        <mxCell id="1" parent="0" />
        <mxCell id="GHrMp-lgqnklwMRtyBZD-1" value="" style="rounded=1;whiteSpace=wrap;html=1;" vertex="1" parent="1">
          <mxGeometry x="450" y="50" width="200" height="100" as="geometry" />
        </mxCell>
        <mxCell id="GHrMp-lgqnklwMRtyBZD-3" value="$$VisitExpr\_VarNode$$" style="rounded=1;whiteSpace=wrap;html=1;" vertex="1" parent="1">
          <mxGeometry x="105" y="280" width="170" height="60" as="geometry" />
        </mxCell>
        <mxCell id="GHrMp-lgqnklwMRtyBZD-4" value="$$VisitExpr\_TupleNode$$" style="rounded=1;whiteSpace=wrap;html=1;" vertex="1" parent="1">
          <mxGeometry x="105" y="380" width="170" height="60" as="geometry" />
        </mxCell>
        <mxCell id="GHrMp-lgqnklwMRtyBZD-5" value="$$VisitExpr\_CallNode$$" style="rounded=1;whiteSpace=wrap;html=1;" vertex="1" parent="1">
          <mxGeometry x="105" y="480" width="170" height="60" as="geometry" />
        </mxCell>
        <mxCell id="GHrMp-lgqnklwMRtyBZD-19" value="$$VarNode$$" style="text;html=1;align=center;verticalAlign=middle;whiteSpace=wrap;rounded=0;rotation=-90;" vertex="1" parent="1">
          <mxGeometry x="160" y="140" width="60" height="30" as="geometry" />
        </mxCell>
        <mxCell id="GHrMp-lgqnklwMRtyBZD-21" value="$$TupleNode$$" style="text;html=1;align=center;verticalAlign=middle;whiteSpace=wrap;rounded=0;rotation=-90;" vertex="1" parent="1">
          <mxGeometry x="140" y="193" width="60" height="30" as="geometry" />
        </mxCell>
        <mxCell id="GHrMp-lgqnklwMRtyBZD-23" value="$$CallNode$$" style="text;html=1;align=center;verticalAlign=middle;whiteSpace=wrap;rounded=0;rotation=-90;" vertex="1" parent="1">
          <mxGeometry x="120" y="237" width="60" height="30" as="geometry" />
        </mxCell>
        <mxCell id="GHrMp-lgqnklwMRtyBZD-29" value="$$VisitExpr\_CallNode$$" style="rounded=1;whiteSpace=wrap;html=1;" vertex="1" parent="1">
          <mxGeometry x="60" y="560" width="170" height="60" as="geometry" />
        </mxCell>
        <mxCell id="GHrMp-lgqnklwMRtyBZD-33" style="edgeStyle=orthogonalEdgeStyle;rounded=0;orthogonalLoop=1;jettySize=auto;html=1;exitX=0.5;exitY=1;exitDx=0;exitDy=0;" edge="1" parent="1" source="GHrMp-lgqnklwMRtyBZD-31">
          <mxGeometry relative="1" as="geometry">
            <mxPoint x="489.9999999999998" y="180" as="targetPoint" />
          </mxGeometry>
        </mxCell>
        <mxCell id="GHrMp-lgqnklwMRtyBZD-34" style="edgeStyle=orthogonalEdgeStyle;rounded=0;orthogonalLoop=1;jettySize=auto;html=1;exitX=0.5;exitY=1;exitDx=0;exitDy=0;" edge="1" parent="1" source="GHrMp-lgqnklwMRtyBZD-31">
          <mxGeometry relative="1" as="geometry">
            <mxPoint x="550.3103448275863" y="180" as="targetPoint" />
          </mxGeometry>
        </mxCell>
        <mxCell id="GHrMp-lgqnklwMRtyBZD-35" style="edgeStyle=orthogonalEdgeStyle;rounded=0;orthogonalLoop=1;jettySize=auto;html=1;exitX=0.5;exitY=1;exitDx=0;exitDy=0;" edge="1" parent="1" source="GHrMp-lgqnklwMRtyBZD-31">
          <mxGeometry relative="1" as="geometry">
            <mxPoint x="609.9999999999998" y="180" as="targetPoint" />
          </mxGeometry>
        </mxCell>
        <mxCell id="GHrMp-lgqnklwMRtyBZD-31" value="Node type" style="rounded=1;whiteSpace=wrap;html=1;" vertex="1" parent="1">
          <mxGeometry x="495" y="80" width="110" height="30" as="geometry" />
        </mxCell>
      </root>
    </mxGraphModel>
  </diagram>
</mxfile>
